<svg width="32" height="32" viewBox="0 0 32 32" fill="none" xmlns="http://www.w3.org/2000/svg">
<path d="M4.97657 1.37689C3.93319 1.39402 3.03844 1.71002 2.40032 2.35552C0.358945 4.42095 1.72063 9.08208 5.45126 12.7696C7.95076 15.2402 11.1743 15.5836 13.2656 16.3066C10.8788 18.5075 8.21101 20.5313 5.11326 22.5116L8.96288 26.3164C11.0421 22.9792 13.2161 20.1031 15.6133 17.5293C19.7674 20.3137 22.6789 25.4341 25.4629 30.4648L30.8066 25.0585C25.6688 22.2928 20.5204 19.4985 17.7285 15.3906C20.3044 12.9397 23.1485 10.7568 26.3945 8.68158L22.545 4.87689C20.6406 7.93333 18.6746 10.6072 16.4922 13.0371C15.7607 10.9473 15.3508 7.75745 12.8497 5.28514C10.2848 2.75002 7.27188 1.33939 4.97651 1.37702L4.97657 1.37689ZM6.03719 4.31839C7.34594 4.34433 9.21782 5.31902 10.8769 6.95902C13.1853 9.24058 14.2085 11.9454 13.1641 13.002C12.1198 14.0586 9.40201 13.0668 7.09382 10.7852C4.78563 8.50377 3.76032 5.79689 4.80469 4.74027C5.09844 4.44308 5.52501 4.3082 6.03719 4.31839Z" fill="white"/>
</svg>
