<svg width="32" height="32" viewBox="0 0 32 32" fill="none" xmlns="http://www.w3.org/2000/svg">
<path d="M3.14974 1.69678C3.14974 1.69678 3.39255 5.26221 4.4493 8.05521C2.80943 8.55028 1.25049 9.44647 1.25049 9.44647C1.25049 9.44647 2.79049 11.673 4.43749 12.7917C5.72986 12.4501 7.02224 12.1848 8.30499 11.9812C8.3193 11.942 10.5686 11.8193 12.1419 11.2791C12.6702 11.1005 6.30824 4.90628 6.57711 4.62428C6.84855 4.33865 13.8745 10.0045 14.0339 9.68909C14.8956 7.99921 14.1958 5.93215 12.1917 4.03521C9.8188 1.78365 3.14974 1.69678 3.14974 1.69678ZM27.4365 2.07521C26.4701 2.07521 25.5922 2.4939 24.9992 3.15584C24.0427 4.22346 24.2492 6.29484 23.6972 7.25428C22.9476 8.42415 19.0013 11.4885 19.0013 11.4885C19.0013 11.4885 21.6885 11.6004 23.952 12.5762C24.5065 11.4921 24.6636 11.009 26.025 9.88797C26.6462 9.37509 27.7105 8.89634 28.6289 8.47059C29.9042 7.87934 30.7307 6.78384 30.7496 5.38709C30.7496 3.55921 29.2644 2.07521 27.4365 2.07521ZM14.7936 12.9062C10.6025 12.8859 6.27961 13.6193 1.96918 15.1669V20.9113C1.96918 26.0999 6.17255 30.3033 11.3612 30.3033H17.4353C22.6192 30.3033 26.8272 26.1 26.8272 20.9113V15.1669C23.0439 13.7002 18.9847 12.9264 14.7936 12.9062Z" fill="white"/>
</svg>
