<svg width="32" height="32" viewBox="0 0 32 32" fill="none" xmlns="http://www.w3.org/2000/svg">
<path d="M9.35626 5.34998C9.28126 5.34998 9.20001 5.34998 9.12501 5.35623C7.00626 5.40623 4.40626 6.02498 1.16876 7.46248V22.675C4.96876 20.875 7.83751 20.3562 10.1813 20.6062C11.0375 20.6937 11.825 20.8875 12.55 21.1437L9.73126 16.2187C9.19376 16.4375 8.61251 16.5625 8.00001 16.5625C5.48689 16.5625 3.43751 14.5125 3.43751 12C3.43751 9.48748 5.48689 7.43748 8.00001 7.43748C10.5125 7.43748 12.5625 9.48748 12.5625 12C12.5625 13.5 11.8313 14.8312 10.7063 15.6687L14.2875 21.9187C14.675 22.1187 15.0438 22.3375 15.4063 22.5562V7.36873C13.9563 6.26248 12.2688 5.49373 10.0313 5.36873C9.81251 5.35623 9.58751 5.34998 9.35626 5.34998ZM22.6063 5.34998C22.375 5.34998 22.1438 5.35623 21.925 5.36873C19.6875 5.49373 18.0063 6.26248 16.55 7.36873V22.5562C18.0438 21.6437 19.6813 20.825 21.775 20.6062C24.1188 20.3562 26.9938 20.875 30.7875 22.675V7.46248C27.5563 6.02498 24.9563 5.40623 22.8375 5.35623C22.7563 5.35623 22.6813 5.34998 22.6063 5.34998ZM8.00001 8.56248C6.09501 8.56248 4.56251 10.0937 4.56251 12C4.56251 13.9062 6.09501 15.4375 8.00001 15.4375C9.90626 15.4375 11.4375 13.9062 11.4375 12C11.4375 10.0937 9.90626 8.56248 8.00001 8.56248ZM8.14376 9.43123H8.31876C6.81251 10.5687 6.14501 12.0625 6.23314 13.8187C4.60439 11.3937 6.31251 9.48123 8.14376 9.43123ZM8.96251 21.7125C6.96251 21.7312 4.47501 22.325 1.16876 23.9625V26.6187C4.96876 24.8187 7.83751 24.3 10.1813 24.55C11.3438 24.675 12.3625 24.9812 13.2938 25.3812C13 25.7625 12.7125 26.2125 12.425 26.7375H15.7563L13.5063 22.8187C12.4688 22.3 11.3625 21.9062 10.0625 21.7687C9.71251 21.7312 9.34376 21.7125 8.96251 21.7125ZM22.7688 21.7125C22.4688 21.7187 22.1813 21.7375 21.9 21.7687C19.775 21.9937 18.175 22.8937 16.55 23.9187V23.9375C16.1688 23.8187 15.7813 23.7937 15.4063 23.8625L17.05 26.7375H19.75C19.375 26.225 19.0125 25.775 18.6438 25.3875C19.5813 24.9812 20.6063 24.675 21.775 24.55C24.1188 24.3 26.9938 24.8187 30.7875 26.6187V23.9625C27.4688 22.3187 24.9688 21.7187 22.9625 21.7125H22.7688Z" fill="white"/>
</svg>
