<svg width="32" height="32" viewBox="0 0 32 32" fill="none" xmlns="http://www.w3.org/2000/svg">
<path d="M13.0151 1.53931L9.7615 7.48962L15.7119 10.7433L16.7914 8.76918L14.1399 7.31931C14.7514 7.18978 15.3749 7.12465 16 7.125C20.9149 7.125 24.875 11.0851 24.875 16C24.875 20.9149 20.9149 24.875 16 24.875C11.0851 24.875 7.125 20.9149 7.125 16C7.125 14.9712 7.29906 13.9846 7.6185 13.067L5.5985 12.057C5.13162 13.2834 4.875 14.6124 4.875 16C4.875 22.1308 9.86919 27.125 16 27.125C22.1308 27.125 27.125 22.1308 27.125 16C27.125 9.86918 22.1308 4.875 16 4.875C15.1811 4.875 14.3828 4.965 13.6138 5.13425L14.9893 2.61862L13.0151 1.53931ZM19.532 9.68799L15.4375 15.8297V23H16.5625V16.1703L20.468 10.312L19.532 9.68799Z" fill="white"/>
</svg>
