<svg width="32" height="32" viewBox="0 0 32 32" fill="none" xmlns="http://www.w3.org/2000/svg">
<path d="M13.7756 2.21182C13.7391 2.20088 13.1996 2.30088 12.6031 2.71032C12.0439 3.09425 11.421 3.66719 10.8979 4.28138L10.9192 4.29813C10.5358 4.78544 10.0986 5.34913 9.81837 5.90857C9.53806 6.468 9.425 6.98294 9.56906 7.45294L8.4935 7.78257C8.2345 6.93769 8.46088 6.1065 8.8125 5.40469C8.9505 5.12919 9.10956 4.868 9.27487 4.62219C6.58612 4.63188 3.89563 4.45313 1.125 4.17175V29.786C1.61626 29.3403 2.13386 28.9245 2.675 28.5409L2.79381 28.4568L2.93837 28.4409C4.4405 28.2753 6.42719 28.0253 8.24512 27.4533C10.063 26.8813 11.6785 25.9907 12.5347 24.6288L12.6946 24.3743L12.9951 24.3659C18.6957 24.2067 21.753 23.1245 25.0984 21.2313C25.1063 21.2254 25.1141 21.2189 25.1219 21.2129C24.6923 21.1894 24.2161 21.1723 23.7261 21.1743C22.4483 21.1797 21.0948 21.3668 20.5156 21.7351L19.912 20.7859C20.9186 20.1458 22.3676 20.055 23.7213 20.0493C24.7044 20.0452 25.639 20.1134 26.2372 20.1616C26.6708 19.6779 27.083 19.1302 27.4359 18.567C27.7526 18.0616 28.0191 17.5429 28.2195 17.0559C27.9807 17.0216 27.7573 16.9533 27.5549 16.8523C27.0373 16.5939 26.6783 16.1369 26.5078 15.6276C26.2686 14.9131 26.3774 14.0777 26.8371 13.3915L22.797 11.9321L22.8143 11.5198C22.8391 10.9309 22.4151 9.82894 21.9018 9.35025C20.5538 8.09325 18.9699 8.0015 17.023 7.22963L16.8009 7.14163L16.7101 6.92063C16.0437 5.30038 15.6438 4.16913 15.2432 3.45188C14.8424 2.73469 14.5198 2.43394 13.7756 2.21182ZM13.4126 3.51307L14.0276 4.45507C12.2108 5.64119 12.1669 6.63863 12.0758 7.68319L10.9551 7.58557C11.0489 6.51007 11.3228 4.87744 13.4126 3.51307ZM7.475 8.46707L7.98244 9.47107C5.34081 10.8059 4.18613 12.4234 3.86494 13.8743C4.76281 13.1693 5.72119 12.8003 7.00356 12.8455L7.95594 12.8791L7.46631 13.6966C6.38706 15.4988 6.05681 16.355 5.82631 17.4276C6.07737 17.3321 6.32675 17.2629 6.58375 17.2414C7.195 17.1903 7.78013 17.3839 8.40281 17.7256L8.99656 18.0513L8.56725 18.5752C7.94363 19.3363 7.69438 19.8264 7.61575 20.2977C7.58594 20.4762 7.58738 20.6711 7.60337 20.881C7.77281 20.7061 7.95212 20.5494 8.16225 20.4311C8.73256 20.1101 9.39631 20.0671 10.2308 20.1416L10.1307 21.2621C9.387 21.1956 8.9975 21.2519 8.71412 21.4115C8.43075 21.5711 8.15725 21.8989 7.78412 22.5609L7.0935 23.7868L6.74875 22.4226C6.52781 21.5483 6.38363 20.8466 6.50612 20.1126C6.599 19.5557 6.84575 19.0269 7.25625 18.4412C7.04238 18.3723 6.85775 18.3474 6.67763 18.3626C6.34987 18.39 5.95437 18.5536 5.36731 18.9378L4.282 19.6478L4.50525 18.3703C4.77294 16.8382 4.97644 15.8551 5.9795 14.0271C5.10219 14.1871 4.51606 14.6723 3.6415 15.6204L2.80137 16.531L2.66887 15.2992C2.42956 13.0768 3.71987 10.3646 7.475 8.46707ZM16.4567 10.1531C17.5684 10.6438 18.9092 11.0469 20.0104 11.1916L20.2421 12.2926C20.0013 12.3433 19.7896 12.3329 19.5632 12.297C19.4781 12.8611 18.9672 13.2805 18.392 13.2805C17.7614 13.2805 17.2079 12.7768 17.2079 12.1308C17.2079 11.9776 17.2398 11.8329 17.2956 11.7006C16.7425 11.4692 15.8133 11.2644 15.4958 10.7804C15.858 10.6233 16.4179 10.1208 16.4567 10.1531ZM27.7271 14.0875C27.4922 14.4804 27.4587 14.9238 27.5747 15.2705C27.6619 15.5311 27.821 15.7278 28.0572 15.8457C28.1911 15.9126 28.3574 15.958 28.5664 15.9596C28.5854 15.8653 28.6006 15.7741 28.6106 15.6879C28.5527 15.2633 28.2009 14.6498 27.7271 14.0875Z" fill="white"/>
</svg>
