<svg width="32" height="32" viewBox="0 0 32 32" fill="none" xmlns="http://www.w3.org/2000/svg">
<path d="M16.1851 1.82126C15.9845 1.82519 15.7676 1.89363 15.5412 2.03376C15.1788 2.25776 14.8243 2.66751 14.6117 3.20344C14.3992 3.73938 14.3763 4.28069 14.4865 4.69219C14.5966 5.10376 14.8145 5.36501 15.1008 5.47863C15.3872 5.59219 15.725 5.55144 16.0873 5.32738C16.4496 5.10326 16.804 4.69344 17.0167 4.15757C17.2292 3.62176 17.2521 3.08038 17.142 2.66882C17.0318 2.25732 16.8139 1.99607 16.5275 1.88257C16.4201 1.83988 16.3056 1.81894 16.1851 1.82132V1.82126ZM21.3994 4.07201C20.848 4.91182 20.3028 5.79557 19.1326 6.89701L19.0317 6.99201L18.8981 7.02926C18.3253 7.18888 17.7106 7.26051 17.0942 7.30926C17.0605 7.67313 16.9842 8.02613 16.876 8.36838C17.8018 8.38007 18.6776 8.31976 19.457 8.07963C20.5983 7.00538 21.746 5.86869 22.2498 4.53588L21.3994 4.07201ZM13.0785 6.04576C13.0677 6.04576 13.0567 6.04607 13.0455 6.04701C12.9675 6.05432 12.8676 6.09857 12.7316 6.17988C11.988 6.94801 11.8562 8.25463 12.6775 9.74751C13.0356 10.3988 13.8083 10.8898 14.7812 11.2213C15.604 11.5016 16.5398 11.6596 17.3942 11.7531L17.6261 10.9129C17.2361 10.7999 16.7506 10.6848 16.2422 10.5328C15.5039 10.3122 14.7062 10.0055 14.095 9.38082L14.0736 9.35894L14.0546 9.33469C13.7392 8.93282 13.7073 8.46957 13.7046 7.92869C13.7023 7.48838 13.7555 6.97532 13.8309 6.42726C13.6218 6.28957 13.4398 6.16413 13.3065 6.10926C13.2193 6.07332 13.1537 6.04626 13.0784 6.04563L13.0785 6.04576ZM14.9061 6.83801C14.8557 7.25382 14.828 7.62382 14.8295 7.92301C14.8316 8.34282 14.9248 8.59888 14.9351 8.62363C15.0593 8.74463 15.2041 8.85301 15.3645 8.95113C15.648 8.41863 15.8663 7.89113 15.9496 7.37426L14.9061 6.83801H14.9061ZM27.5908 9.11926C25.1721 9.14469 21.4815 10.7147 19.6339 12.0411L21.0045 13.7076C22.447 12.1353 24.1714 11.065 25.8976 10.6296C27.6489 10.1879 29.4258 10.4265 30.7933 11.4794C30.9048 11.3669 30.9498 11.2569 30.9616 11.1399C30.9807 10.9518 30.8993 10.6746 30.6576 10.3723C30.1742 9.76757 29.0984 9.16338 27.8208 9.12176C27.7456 9.11926 27.669 9.11851 27.5908 9.11926H27.5908ZM11.3933 9.66513C10.9828 10.6895 10.7553 11.7495 10.9055 12.6578C11.0469 13.4768 11.4145 13.7491 12.0383 14.0291C12.6626 14.3093 13.5262 14.4739 14.345 14.9063L14.7491 15.1199L14.6227 15.5593C14.2683 16.7918 13.7071 17.9828 12.8532 19.0849C13.3945 19.763 14.3542 20.3318 15.4057 20.8984L15.7893 20.2176L14.6997 18.4002L14.9585 18.0931C15.6326 17.2928 16.0107 15.6629 16.2636 14.6084C15.7828 14.1272 14.6517 13.6034 13.5884 12.8241L13.1909 12.5328L13.4274 12.1005C13.4599 12.041 13.4946 11.9814 13.5286 11.9218C12.7669 11.5486 12.0999 11.0319 11.6918 10.2899C11.5778 10.0828 11.4788 9.87413 11.3931 9.66519L11.3933 9.66513ZM27.6517 11.5353C27.1775 11.5294 26.6819 11.592 26.1727 11.7204C24.5433 12.1314 22.8123 13.2421 21.4236 14.9315L20.9891 15.4601L18.9053 12.9263C18.7947 12.9443 18.6912 12.9607 18.5797 12.9789C19.199 13.9858 19.6391 14.9271 20.1855 15.5344C20.5427 15.9314 20.9195 16.1959 21.4593 16.3308C21.9608 16.4562 22.6255 16.4623 23.5382 16.2604C23.3698 15.7695 23.397 15.2602 23.5183 14.8181C23.6758 14.2449 23.9608 13.7381 24.1921 13.2848L25.1943 13.7963C25.0588 14.0615 24.9241 14.3208 24.8123 14.5665C25.1311 14.5495 25.631 14.5199 26.1004 14.4886C26.6619 14.4511 26.9966 14.4273 27.1866 14.4138C27.2931 14.1907 27.4093 13.9939 27.5557 13.8203C27.7753 13.5596 28.0986 13.3588 28.4467 13.3135C28.5337 13.3023 28.6195 13.2974 28.7048 13.2989C29.1298 13.306 29.5438 13.4671 30.0356 13.7168C30.1523 13.335 30.2675 12.9579 30.3819 12.5889C29.6288 11.8902 28.6916 11.5482 27.6517 11.5354V11.5353ZM17.37 13.1788C17.092 13.2252 16.8105 13.2731 16.5295 13.3206C16.8434 13.5555 17.1254 13.8226 17.3451 14.1514L17.4829 14.3575L17.4236 14.5983C17.2138 15.4519 16.9328 17.2139 16.061 18.4826L17.0906 20.2001L16.1655 21.8414C16.5993 21.7289 17.0116 21.576 17.391 21.3759L18.0785 21.0134L18.2081 21.7797C18.5817 23.9897 17.3892 26.0597 16.8034 27.9856C17.2101 28.5512 17.5688 28.9218 17.8831 29.2598C18.1391 29.5353 18.3833 29.8227 18.549 30.1775H20.3148C20.1984 29.5614 19.9881 29.2089 19.2002 28.5056L18.8516 28.1944L19.0935 27.7946C20.0489 26.2166 20.6499 22.6121 20.9013 20.8284L20.9588 20.4205L21.3652 20.3523C22.006 20.2448 22.4173 19.9862 22.7503 19.6131C23.0835 19.24 23.3274 18.7334 23.5165 18.1575C23.5998 17.9033 23.6695 17.6381 23.7338 17.3688C22.7236 17.5871 21.8932 17.5988 21.1867 17.4222C20.4142 17.2292 19.8144 16.8039 19.3492 16.2869C18.54 15.3876 18.0586 14.2411 17.3701 13.1788L17.37 13.1788ZM10.599 14.399C9.72102 14.5734 8.88595 14.7471 8.13458 14.9171C7.34745 15.1843 6.84364 15.5926 6.45208 16.1524C6.05708 16.7168 5.78683 17.4523 5.57189 18.3243C5.14377 20.0604 4.94527 22.3079 4.12983 24.6279L3.03827 28.7176C3.28502 28.9513 3.52089 29.1096 3.77058 29.3335C3.98858 29.5291 4.1887 29.8183 4.30683 30.1775H5.77227C5.80933 29.5838 5.60289 28.9379 5.09377 28.5213L4.77002 28.2566L6.40389 24.322L6.73827 24.2884C8.06577 24.1551 9.27252 22.6566 9.93764 21.7721L10.172 21.4607L10.5459 21.5706C11.9584 21.9854 13.6153 22.2053 15.1288 22.0316C13.8096 21.3388 12.4072 20.6229 11.666 19.3431L11.4675 19.0004L11.7231 18.6979C12.5094 17.7683 13.028 16.7686 13.3856 15.7104C12.8411 15.4985 12.2011 15.3353 11.5775 15.0554C11.2333 14.9009 10.8921 14.6868 10.599 14.3991V14.399ZM28.6227 14.4278C28.6108 14.4274 28.6006 14.4279 28.5919 14.429C28.522 14.4381 28.504 14.4406 28.4158 14.5451C28.3313 14.6454 28.215 14.8541 28.0898 15.1567C27.989 15.5306 28.0859 15.8003 28.355 16.1506C28.5153 16.3594 28.7398 16.5723 28.99 16.7829C29.2466 16.1542 29.4768 15.4882 29.6931 14.8163C29.129 14.5404 28.7643 14.4306 28.6226 14.4277L28.6227 14.4278ZM7.35708 15.2565C7.35583 15.2565 7.33708 15.2613 7.3347 15.2615C7.35783 15.2628 7.36158 15.2561 7.3572 15.2565H7.35708ZM26.9416 15.5584C26.6838 15.5764 26.5718 15.5848 26.1753 15.6112C25.499 15.6562 24.8438 15.7012 24.5428 15.7048C24.5623 15.836 24.6103 15.9627 24.6934 16.0963L24.7266 16.1497L24.7473 16.2091C24.7865 16.322 24.8223 16.4279 24.8563 16.5309C25.0119 16.8081 25.4774 17.2322 26.1228 17.5644C26.7686 17.8967 27.5611 18.1611 28.2659 18.2945C28.3493 18.1492 28.4299 17.9991 28.5081 17.8451C28.1417 17.5567 27.7658 17.2306 27.4627 16.8359C27.1915 16.4826 26.9833 16.0409 26.9416 15.5584ZM5.21852 16.015C4.86308 16.1717 4.5132 16.3377 4.21139 16.4988C3.82802 16.7033 3.54683 16.9075 3.43827 17.0006C3.15352 17.9875 3.03077 18.8811 2.70202 19.8059C2.40702 20.6356 1.92158 21.4671 1.03577 22.3128C1.76227 22.9378 2.48789 23.3259 3.37764 23.27C3.89027 21.4438 4.08889 19.64 4.47952 18.055C4.66002 17.3231 4.88395 16.6336 5.21852 16.015ZM25.2441 18.3656C25.2581 18.7245 25.2357 19.1075 25.1851 19.5911C25.182 20.0201 25.4129 20.2993 25.7631 20.3855C26.1146 20.4723 26.6744 20.3671 27.3145 19.5966L27.3273 19.5814L27.341 19.567C27.4232 19.4813 27.5029 19.3905 27.5808 19.2968C26.9073 19.1309 26.2208 18.88 25.6081 18.5649C25.4838 18.5008 25.3628 18.4341 25.2441 18.3655L25.2441 18.3656ZM23.5277 20.4292C23.1302 20.8491 22.6017 21.1752 21.9601 21.3578C21.9595 21.3626 21.9585 21.3684 21.9578 21.3733L22.9163 22.4484L22.3747 24.0519L21.4666 24.2529C21.36 24.7573 21.2367 25.2694 21.0947 25.7703C21.1211 25.7753 21.1478 25.7809 21.1741 25.7856C21.8267 25.9039 22.3723 25.9053 22.8563 25.6804C23.951 24.5016 24.6136 23.7076 24.8531 22.3404C24.7363 21.8464 24.2202 21.0899 23.624 20.5193C23.592 20.4886 23.5599 20.4588 23.5278 20.4293L23.5277 20.4292ZM10.3406 23.0954C10.0073 23.5199 9.58983 24.0023 9.08064 24.4182C10.0998 26.3834 11.2411 28.3489 12.6731 30.179H14.3452C12.5352 27.9553 11.3552 25.4838 10.3406 23.0955V23.0954Z" fill="white"/>
</svg>
