<svg width="32" height="32" viewBox="0 0 32 32" fill="none" xmlns="http://www.w3.org/2000/svg">
<path d="M15.8794 1.23169C12.3604 3.04406 9.23579 7.939 8.21435 11.7759C10.2422 11.9078 11.8787 12.5861 13.1292 13.7039L13.7126 13.0665C12.8791 12.2505 11.8004 11.5728 10.4005 10.8973C11.193 8.92594 12.4011 5.94169 13.9379 5.76794C14.5391 5.69994 15.1829 6.06306 15.8835 7.08469C18.076 3.43881 20.1581 8.25375 21.3664 10.8973C19.9952 11.6409 18.9207 12.3236 18.077 13.1488L18.6195 13.7588C19.8495 12.6506 21.477 11.9239 23.5289 11.7793C22.39 7.95844 19.4697 3.13375 15.8794 1.23169ZM13.726 9.03563C13.1702 9.03563 12.7196 9.28263 12.7196 9.58725C12.7196 9.89194 13.1702 10.1389 13.726 10.1389C14.2819 10.1389 14.7327 9.89206 14.7327 9.58725C14.7327 9.28263 14.2819 9.03563 13.726 9.03563ZM18.0364 9.03563C17.4805 9.03563 17.0298 9.28263 17.0298 9.58725C17.0298 9.89194 17.4804 10.1389 18.0364 10.1389C18.5922 10.1389 19.043 9.89206 19.043 9.58725C19.043 9.28263 18.5922 9.03563 18.0364 9.03563ZM10.6055 13.4656C10.4686 13.6951 10.334 13.9342 10.2027 14.1856C8.60354 17.2469 7.49898 21.9133 7.45923 28.1531C9.50773 29.3338 11.4794 30.1109 13.4409 30.4649C11.2222 28.9424 9.66748 25.4091 9.66748 21.2928C9.66748 18.4196 10.425 15.8309 11.6369 14.0111C11.3182 13.8004 10.9754 13.618 10.6055 13.4657V13.4656ZM21.1638 13.4875C20.798 13.6423 20.4594 13.8258 20.1452 14.0353C21.3477 15.8537 22.0985 18.4324 22.0985 21.2928C22.0985 25.4065 20.5458 28.9379 18.3294 30.4619C20.2594 30.1121 22.2319 29.3487 24.3079 28.1528C24.268 21.9296 23.1635 17.2676 21.5642 14.2042C21.4337 13.9541 21.2999 13.7161 21.1639 13.4875H21.1638ZM15.0597 14.9631C15.4989 16.3721 15.6302 17.781 15.121 19.19H12.524V20.3471C13.1525 20.1446 13.7896 20.0102 14.4304 19.9349C14.4345 23.0734 14.5124 25.9708 15.6691 29.0246L15.9312 29.7168L16.2115 29.0316C17.429 26.0557 17.3393 23.0756 17.3323 19.9676C17.9734 20.0509 18.6112 20.1801 19.2414 20.347V19.1898H16.6555C16.225 17.7808 16.2847 16.3719 16.7057 14.9629H15.0597V14.9631Z" fill="white"/>
</svg>
