<svg width="32" height="32" viewBox="0 0 32 32" fill="none" xmlns="http://www.w3.org/2000/svg">
<path d="M18.1625 2.28751C17.7813 2.38438 15.5375 2.96876 12.7688 4.05126C9.75625 5.22876 6.40625 6.97501 5.10063 8.84376C3.43313 11.2188 2.845 14.9875 4.05813 17.5563C4.58188 18.6625 6.41875 19.925 8.1375 20.8C9.8625 21.675 11.425 22.2125 11.425 22.2125L11.8125 22.3438L11.8063 22.7563C11.7688 25.1563 11.6875 27.3688 11.6375 29.7125H16.0625C16.05 29.2313 14.35 28.6563 13.1875 28.225L13.275 27.8063C13.6938 25.7375 13.8938 23.2375 14.05 20.9C13.6563 20.8625 13.2688 20.75 12.9063 20.5688C12.1188 20.1813 11.4375 19.4813 10.9938 18.5688C10.9563 18.4875 10.9188 18.4 10.8813 18.3188C10.25 18.1375 9.69375 17.9188 9.2 17.6438C7.89375 16.9188 7.05 15.8063 6.35625 14.2313L6.12563 13.7L6.6625 13.4875C7.64375 13.0875 8.23125 12.7813 8.7125 12.2313C9.1875 11.675 9.59375 10.8063 10.0438 9.22501L10.1188 8.98126L17.4875 5.45626L23.8625 9.95001C23.7125 10.4438 23.525 10.925 23.6375 11.4C24.3875 11.8313 25.875 12.2563 27.1438 12.5313C27.7 12.65 28.1813 12.7375 28.5875 12.8063C28.3125 12.1813 27.9125 11.6938 27.3938 11.225C26.6625 10.575 25.6938 9.98751 24.6125 9.27501L24.5563 9.23751L24.5063 9.18126C22.3 6.71251 20.3875 4.13938 18.1625 2.28751ZM17.8313 7.08126C18.8875 8.44376 20.0313 9.85626 20.6938 11.4938L20.8063 11.7688C20.5625 12.1813 20.275 12.5188 20.2 12.975C21.1063 13.5375 22.525 13.9813 23.725 14.2563C24.1938 14.3625 24.6125 14.4438 24.9688 14.5063C24.775 14.2188 24.525 13.9 24.2125 13.5875C23.5688 12.9313 22.7313 12.275 21.9563 11.7625L21.7188 11.6125L21.7 11.3313C21.65 10.6313 21.425 10 21.1125 9.39376L17.8313 7.08126ZM13.1813 14.675C12.9625 14.675 12.75 14.725 12.5563 14.8188C12.1188 15.0313 11.8188 15.4625 11.7 16.05C11.5813 16.6438 11.6625 17.375 12 18.075C12.3438 18.7813 12.8688 19.2938 13.4125 19.5688C13.95 19.8313 14.4688 19.8625 14.9125 19.65C15.35 19.4375 15.65 19.0063 15.775 18.4188C15.8938 17.825 15.8063 17.0938 15.4688 16.3875C15.125 15.6875 14.6 15.1688 14.0625 14.9C13.7625 14.75 13.4625 14.675 13.1813 14.675Z" fill="white"/>
</svg>
