<svg width="32" height="32" viewBox="0 0 32 32" fill="none" xmlns="http://www.w3.org/2000/svg">
<path d="M1.125 1.125V14.0658C2.32812 15.2472 4.44187 16.3954 6.43581 17.0616C8.19269 17.6486 9.35162 17.8629 10.6162 17.3953C11.6077 17.0286 12.7519 16.7564 13.5187 16.2628C14.2853 15.7693 14.7271 15.2015 14.5074 13.8024L14.5052 13.7878L14.5037 13.7732C14.4833 13.5757 14.4572 13.3683 14.4283 13.1566C14.417 13.1596 14.4062 13.1628 14.3947 13.1657C13.718 13.3396 12.7519 13.4332 11.5349 13.1879C11.4506 13.2398 11.3652 13.2904 11.2782 13.3386L10.7859 13.6108L10.2416 12.6264L10.7337 12.3541C11.9537 11.6794 12.9889 10.3826 13.6121 9.3895C13.5895 9.31137 13.5656 9.23263 13.5421 9.15419C12.7387 9.71019 11.6029 9.97769 10.2813 9.46325L9.75712 9.25919L10.1652 8.21081L10.6894 8.41488C11.8775 8.87738 12.5561 8.57131 13.1354 8.04375C13.6006 7.62 13.9351 7.0245 14.156 6.56125C12.5101 4.64063 10.9356 2.86356 9.3795 1.125H1.125ZM12.6311 1.125C13.2488 2.00687 14.1008 2.97563 15.1276 3.93563C15.2727 3.88388 15.4222 3.83206 15.5792 3.78175C16.3364 3.53881 17.1967 3.296 18.0097 3.32938C18.2807 3.34044 18.5464 3.38225 18.8012 3.465L19.3362 3.63875L18.9889 4.70862L18.4539 4.53506C17.9723 4.37881 16.8516 4.55506 15.9228 4.85294C15.3691 5.03056 14.8946 5.22206 14.6005 5.34819C14.8147 5.59681 15.0297 5.84725 15.2465 6.101L15.4746 6.36788L15.335 6.69C15.2585 6.86637 15.1537 7.1035 15.016 7.36706C15.6985 8.20156 16.6612 9.05919 17.3304 9.54481C18.4179 10.3341 19.9782 11.282 21.1981 11.5384C21.8081 11.6667 22.2936 11.625 22.6419 11.4137C22.9901 11.2023 23.2935 10.7904 23.4456 9.90475L23.5409 9.35025L24.6496 9.54088L24.5543 10.0951C24.5518 10.1091 24.5489 10.1224 24.5464 10.1362C26.5398 10.9989 28.4575 11.5334 30.0121 11.5624C30.3152 11.5681 30.6028 11.5546 30.8749 11.5229V6.66437C30.3539 7.08238 29.6912 7.57763 28.8327 8.17138L28.1927 7.24619C29.5031 6.33975 30.32 5.68625 30.875 5.18475V1.125H12.6311ZM3.86675 1.213C4.55819 1.24881 11.2804 4.77894 9.39987 4.12862C9.30069 4.09437 8.79825 4.02537 8.11256 3.96462C8.29944 4.30744 8.41525 4.68812 8.45025 5.08087C8.49375 5.569 8.40787 6.00075 8.19756 6.3265C7.98725 6.65212 7.61356 6.88606 7.13019 6.81125C6.64681 6.7365 6.22062 6.37888 5.94562 5.97813C5.67062 5.5775 5.50419 5.10669 5.46063 4.61863C5.43606 4.34219 5.453 4.08388 5.5105 3.85269C4.08912 3.86606 2.76275 4.03331 2.49612 4.55737L3.81938 1.22063C3.82862 1.21438 3.84462 1.21188 3.86687 1.213H3.86675ZM6.88194 4.02575C6.8515 4.02106 6.78769 4.02688 6.70612 4.15325C6.62456 4.2795 6.56413 4.512 6.58925 4.79306C6.61425 5.07413 6.71831 5.33219 6.825 5.48763C6.93162 5.64306 6.99825 5.66919 7.02875 5.67387C7.05937 5.67862 7.12325 5.67262 7.20481 5.54637C7.28638 5.42 7.34681 5.18762 7.32169 4.90637C7.29669 4.62531 7.19263 4.36744 7.08594 4.212C6.97925 4.05656 6.9125 4.03044 6.88194 4.02575ZM18.6965 5.53212C18.7325 5.53275 18.7687 5.534 18.805 5.53613C19.9675 5.60175 21.171 6.314 22.4074 7.61206L21.5926 8.38794C20.4701 7.20931 19.4716 6.70044 18.7416 6.65931C18.0116 6.61806 17.4532 6.95144 16.9641 7.81512L15.9853 7.26075C16.5978 6.17919 17.5788 5.51294 18.6964 5.532L18.6965 5.53212ZM13.9936 10.8436C13.6546 11.3024 13.2544 11.774 12.7954 12.2095C13.3414 12.2275 13.7809 12.1619 14.1149 12.0761C14.1626 12.0638 14.2043 12.0513 14.2471 12.0388C14.1751 11.6543 14.09 11.2541 13.9936 10.8436ZM24.2133 11.2226C24.0589 11.5524 23.8656 11.8304 23.6367 12.054C25.6215 13.5985 27.4093 15.474 28.507 17.7563L28.5629 17.8724C30.439 20.3561 31.0379 23.7279 30.5551 26.6488L30.5284 26.8103L30.419 26.9322C28.6807 28.8727 25.8051 29.8872 23.2262 30.282C21.9368 30.4793 20.72 30.5172 19.728 30.4039C18.736 30.2904 17.9228 30.1096 17.4834 29.4329L17.4187 29.3333L17.3998 29.2161C17.2846 28.5007 17.2367 27.8117 17.1544 27.1378C16.0859 28.3357 15.3024 29.5637 14.8909 30.875H30.875V12.6548C30.5875 12.6825 30.2924 12.6929 29.9911 12.6873C28.2382 12.6545 26.2483 12.0979 24.2132 11.2226H24.2133ZM1.125 15.5575V18.7039C1.69519 19.1289 3.21737 20.2625 5.04875 21.6099C6.15531 22.424 7.26981 23.2381 8.12025 23.8464C8.50437 24.1212 8.8115 24.3361 9.06025 24.5063C9.0865 24.4308 9.10462 24.3901 9.13356 24.3019C9.29481 23.8096 9.4915 23.1373 9.68031 22.4648C9.97331 21.4208 10.1978 20.5642 10.3061 20.1481C10.2332 19.7059 10.208 19.2144 10.2345 18.669C8.91563 18.9321 7.60681 18.639 6.07925 18.1286C4.31462 17.5389 2.49581 16.6351 1.125 15.5574V15.5575ZM26.6629 17.5537C26.6281 17.5526 26.595 17.5521 26.569 17.5541C26.2655 17.5772 26.1813 17.6836 26.059 17.8198C25.9776 17.9106 25.8988 18.0367 25.7581 18.1925C25.6173 18.3482 25.3481 18.5473 25.0253 18.5619C24.7345 18.575 24.4744 18.4486 24.3159 18.3337C24.1576 18.2189 24.0602 18.1186 23.9747 18.0527C23.8037 17.9211 23.7428 17.8426 23.2722 17.9503C23.0741 17.9955 23.0234 18.0776 22.908 18.2976C22.8503 18.4076 22.7944 18.5418 22.7125 18.6929C22.6306 18.8439 22.5192 19.0385 22.2691 19.1749C22.0877 19.2737 21.8981 19.2629 21.7855 19.2391C21.673 19.2153 21.6026 19.1825 21.5383 19.1537C21.4097 19.0962 21.3081 19.0435 21.1916 19.0029C20.9586 18.9217 20.6954 18.8642 20.2046 19.0559C19.7956 19.2157 19.7799 19.3086 19.7371 19.4178C19.7156 19.4724 19.7033 19.5422 19.661 19.6744C19.6187 19.8067 19.4792 20.0855 19.2033 20.1926C18.9673 20.2841 18.7249 20.266 18.5569 20.2303C18.3888 20.1946 18.2675 20.1499 18.147 20.1199C17.906 20.0599 17.6684 20.0184 17.1739 20.1793C16.8858 20.2731 16.5557 20.6822 16.4029 21.2331C16.2529 21.7736 16.3043 22.3846 16.4753 22.6919C18.3576 24.8191 18.2259 27.0409 18.4876 28.8632C18.6289 28.9634 19.1075 29.2007 19.8555 29.2861C20.2063 29.3262 20.6042 29.3445 21.0339 29.3401C21.1018 27.2004 20.5583 24.5313 19.7721 22.7884L20.7974 22.3256C21.6642 24.2469 22.2279 26.9441 22.1627 29.2802C22.4539 29.2529 22.7528 29.2163 23.0558 29.1699C23.6409 29.0803 24.2408 28.9529 24.8346 28.7882C24.4263 26.5114 24.0836 24.0416 22.8614 21.934L23.8346 21.3696C25.1699 23.6724 25.5271 26.2352 25.9154 28.4434C26.4401 28.2526 26.9491 28.0316 27.4269 27.7804C27.3072 25.1087 26.9839 22.8159 25.907 21.1467L26.8523 20.5367C28.0261 22.3559 28.3777 24.6214 28.5196 27.1098C28.8702 26.8576 29.1898 26.5842 29.4686 26.2901C29.9143 23.2664 29.0469 19.703 26.7675 17.5574C26.7344 17.5568 26.6977 17.5549 26.6628 17.5537L26.6629 17.5537ZM1.125 20.1063V30.875H13.7216C14.2089 29.0721 15.2951 27.449 16.74 25.93L12.7039 23.4783L12.6998 23.4757C12.085 23.0878 11.4617 22.6171 10.9948 21.9301C10.9204 22.2029 10.8436 22.4831 10.7634 22.7689C10.5724 23.4492 10.3737 24.1297 10.2026 24.6521C10.1171 24.9134 10.0398 25.1329 9.96594 25.3084C9.92906 25.3961 9.89569 25.4707 9.845 25.554C9.81962 25.5958 9.7925 25.64 9.7325 25.7012C9.67231 25.7623 9.56262 25.8849 9.30419 25.8849C9.14937 25.8849 9.11838 25.8561 9.08169 25.8418C9.04494 25.8274 9.02138 25.8156 8.99856 25.8039C8.95294 25.7804 8.91319 25.7569 8.86744 25.7289C8.77594 25.6727 8.66494 25.5997 8.52962 25.508C8.259 25.3245 7.895 25.0684 7.46575 24.7614C6.60731 24.1473 5.49075 23.3315 4.382 22.5159C3.09169 21.5666 1.96912 20.7338 1.125 20.1063Z" fill="white"/>
</svg>
