<svg width="32" height="32" viewBox="0 0 32 32" fill="none" xmlns="http://www.w3.org/2000/svg">
<path d="M25.9375 1.63001C23.0938 1.59564 18.8125 8.46876 18.1875 10.9C17.6938 13.2125 22.675 16.6625 23.5188 9.50626C23.775 7.33126 26.9875 1.98626 26.2438 1.66751V1.66126C26.2375 1.66126 26.225 1.65501 26.2063 1.65501C26.1188 1.63939 26.025 1.63064 25.9375 1.63001ZM29.5438 3.00251C28.7813 2.91251 27.3938 8.82501 26.0813 10.5438C21.7125 16.275 27.6875 17.2563 28.9313 15.25C30.2313 13 32 4.63626 29.6125 3.03001C29.6063 3.02376 29.5938 3.01751 29.5813 3.01126C29.5688 3.00501 29.5563 3.00376 29.5438 3.00251ZM8.14377 12.6563C5.2919 12.6875 1.63377 20.1625 1.26002 22.6938C1.00815 25.0438 6.32502 27.9563 6.42502 20.7563C6.45002 18.5625 9.09377 12.9125 8.31877 12.6688V12.6625H8.28127C8.23752 12.6563 8.19377 12.6563 8.14377 12.6563ZM11.7438 13.6563C10.975 13.65 10.2063 19.6813 9.08127 21.5188C5.32752 27.675 11.375 28.0313 12.4 25.9063C13.4625 23.5313 14.3563 15.025 11.8125 13.675C11.8063 13.6688 11.7938 13.6688 11.7813 13.6625C11.7688 13.6563 11.7563 13.6563 11.7438 13.6563ZM19.0125 14.4C18.4438 14.3938 17.9688 14.6 17.7688 14.9938C17.4375 15.675 18.0125 16.65 19.0688 17.1813C20.1188 17.7063 21.2563 17.5813 21.5875 16.9063C21.9313 16.225 21.35 15.25 20.2938 14.725C20.225 14.6875 20.1625 14.6625 20.1 14.6375C19.725 14.475 19.35 14.4 19.0125 14.4ZM23.85 16.3813C23.1 16.3813 22.4813 16.6813 22.3188 17.2C22.0875 17.9188 22.8188 18.8 23.9438 19.15C25.0688 19.5063 26.1625 19.2063 26.3938 18.4813C26.6125 17.8125 25.9813 16.9938 24.975 16.6063L24.7688 16.5313C24.4563 16.4313 24.1375 16.3875 23.85 16.3813ZM2.61315 26.075C1.96627 26.0938 1.44065 26.3563 1.26752 26.8063C1.00877 27.5188 1.6819 28.4313 2.78752 28.85C3.88627 29.2625 5.00252 29.0188 5.26502 28.3125C5.54002 27.6 4.85877 26.6938 3.75127 26.2813C3.67877 26.25 3.6144 26.2313 3.5494 26.2125C3.2269 26.1125 2.90752 26.0688 2.61315 26.075ZM7.76252 27.55C6.87502 27.5438 6.1469 27.925 6.0219 28.5313C5.86502 29.2688 6.68752 30.0688 7.84377 30.3C9.00002 30.5375 10.0563 30.125 10.2125 29.3813C10.3625 28.6938 9.65002 27.9438 8.60627 27.6625C8.53752 27.65 8.46877 27.6313 8.39377 27.6125C8.18127 27.5688 7.96252 27.55 7.76252 27.55Z" fill="white"/>
</svg>
