<svg class="fill-gray-600" width="32" height="32" viewBox="0 0 32 32" xmlns="http://www.w3.org/2000/svg">
<path d="M15.5 1.26874L4.52063 8.28749L15.5 8.04999V1.26874ZM16.5 1.26874V8.04999L27.4813 8.28749L16.5 1.26874ZM19.7125 4.94999C20.0938 5.16874 20.225 5.39999 20.6562 5.21249C21.325 5.26249 22.05 5.57499 22.3813 6.19374C22.675 6.47499 22.475 6.98124 22.0562 6.98124C21.45 6.98749 20.825 6.59999 21.1437 6.46249C21.4375 6.33749 22.0625 6.51874 21.7687 6.11874C21.5437 5.83749 21.0812 5.63124 20.75 5.74999C20.65 6.17499 20.1625 5.99999 20 5.70624C19.8563 5.34374 19.4312 5.19374 19.0625 5.21249C18.6812 5.38124 19.1625 5.76249 19.3937 5.83124C19.8875 5.96874 19.4062 6.29999 19.1375 6.14999C18.875 5.99999 18.2 5.54999 18.2938 5.00624C18.6563 4.54436 19.2812 4.71749 19.7125 4.94999ZM12.9312 4.73124C13.275 4.76249 13.7 4.91874 13.5688 5.34999C13.3 5.78749 12.9563 6.16874 12.4375 6.27499C12.0312 6.48749 11.5062 6.54999 11.0875 6.39374C10.8562 6.24999 10.2438 5.81249 10.1562 6.18124C10.025 7.10624 10.2 6.99999 9.4625 7.29374V5.76874C10.0812 5.52499 10.7812 5.48749 11.3562 5.84999C11.8562 6.11249 12.5687 5.94374 12.8687 5.49374C12.9562 5.08749 12.3625 5.20624 12.1062 5.28124C11.9375 4.76874 12.6 4.81249 12.9312 4.73124ZM15.1187 9.05624L3.46187 9.31249L7.9125 21.3687L15.1187 9.05624ZM16.8813 9.05624L24.0875 21.3687L28.5375 9.31249L16.8813 9.05624ZM16 9.52499L8.68125 22.0375H23.3188L16 9.52499ZM24.3312 10.8437C25.2 11.3625 25.675 12.4812 25.7125 13.5312C25.6313 14.3812 25.6688 14.7687 24.7625 14.8687C23.8563 14.9687 23.2687 13.6687 22.9062 12.8312C22.6938 12.2125 22.5438 11.3312 23.0125 10.875C23.3938 10.575 23.95 10.6187 24.3312 10.8437ZM10.35 11.85C10.4813 12.1 10.3188 12.5625 10.05 12.6062C9.74375 12.65 9.8125 12.025 9.4625 11.8812C9.03125 11.7375 8.6125 12.2312 8.525 12.6062C9.175 12.3562 9.79375 13.05 9.79375 13.6687C9.76875 14.4 9.3 15.2187 8.5625 15.425H8.2125C7.41875 15.3812 7.06875 14.4375 7.325 13.7625C7.6 12.775 8 11.6437 9.025 11.225C9.55625 10.9812 10.2125 11.425 10.35 11.85ZM23.7188 11.325C23.275 11.3187 23.4438 11.95 23.5125 12.2312C23.7313 12.95 23.9688 13.8937 24.6938 14.1062C25.1187 14.0312 24.9688 13.3062 24.925 13.075C24.6312 12.3937 24.4813 11.6187 23.7188 11.325ZM3.25 11.625V22.45L7.11875 22.0937L3.25 11.625ZM28.75 11.625L24.8813 22.0937L28.75 22.45V11.625ZM21.3813 11.6687L23.1625 15.6375L22.5375 15.9125L21.2875 13.2062C20.9062 13.3937 20.475 13.7625 20.375 13.1187C20.2938 12.875 20.9062 12.8 20.8813 12.375C20.8625 11.9437 21.0188 11.6125 21.3813 11.6687ZM8.13125 13.3812C7.98125 13.7 7.875 14.025 7.9625 14.375C8.06875 14.925 8.80625 14.775 8.9375 14.325C9.10625 14.0125 9.18125 13.5937 8.90625 13.3437C8.65 13.1312 8.35 13.1687 8.13125 13.3812ZM28.6562 15.9812C28.65 17.1437 28.725 18.4312 28.05 19.4375C27.9937 19.5125 27.9125 19.5562 27.8188 19.5937C27.4563 19.3375 27.6312 18.8875 27.8937 18.625C27.9562 19.0812 28.2375 18.4437 28.3062 18.275C28.3875 18.075 28.5312 17.1687 28.2437 17.6375C28.2875 17.8875 27.8188 18.4562 27.6625 18.1437C27.35 17.2437 27.6625 16.2375 28.1 15.425C28.4563 15.0375 28.7188 15.7 28.6562 15.9812ZM3.74563 15.3437C3.7825 15.35 3.82937 15.4062 3.90062 15.5687V19.3875C3.44437 18.95 3.62125 18.2625 3.6225 17.7375C3.6225 17.2125 3.72563 16.7187 3.5425 16.2875C3.25375 16.1812 3.18062 15.225 3.34437 15.4937C3.62 15.7937 3.63563 15.325 3.74563 15.3437ZM14.9187 15.8187C15.425 16.1 15.7812 16.7187 15.5938 17.2937C15.4625 18.2437 13.9062 18.6125 13.6938 19.15C13.6188 19.3375 15.2812 19.25 15.5813 19.25C15.6125 19.5 15.675 19.9187 15.3438 19.9812C14.4375 19.9062 13.475 19.9437 12.525 19.9437C12.55 19.2437 12.9875 18.6125 13.5875 18.2687C14.0187 17.9625 14.55 17.6875 14.7188 17.15C14.8313 16.8687 14.6812 16.5687 14.4312 16.4312C14.1687 16.25 13.7437 16.2875 13.6062 16.6C13.4812 16.8375 13.3313 17.1687 13.0625 17.2C12.8813 17.225 12.5 17.2312 12.6125 16.8937C12.7 16.5437 12.825 16.175 13.125 15.9437C13.675 15.55 14.3687 15.525 14.9187 15.8187ZM18.25 15.7312C18.675 15.8687 19 16.225 19.1437 16.6437C19.525 17.5625 19.4875 18.7125 18.8687 19.5125C18.5875 19.8125 18.2312 20.0812 17.8062 20.0812C17.025 20.075 16.4062 19.3875 16.2563 18.6562C16.0625 17.8187 16.1438 16.8625 16.6875 16.1687C17.1125 15.6937 17.6875 15.525 18.25 15.7312ZM28.0063 16.2375C27.9062 16.6062 27.8 17.075 27.9625 17.4437C28.2812 17.3187 28.3 16.8437 28.375 16.5375C28.4312 16.1562 28.1562 15.75 28.0063 16.2375ZM16.9937 17.5562C17.0312 18.2125 17.1 18.9812 17.6 19.3187C17.9062 19.4312 18.2063 19.1812 18.2938 18.9C18.4125 18.5062 18.4375 18.0937 18.4438 17.6875C18.4313 17.2437 18.35 16.75 18.025 16.4312C17.2625 16.1562 17.0687 17.1125 16.9937 17.5562ZM27.125 16.675V20.5L26.85 20.9187V18.275C26.5625 18.7437 26.2812 18.8437 26.4688 18.2187C26.85 17.775 26.7687 17.1312 27.125 16.675ZM5.24062 17.4375C5.29062 17.6625 5.56063 18.55 5.36812 18.3625C5.245 18.2812 5.14188 18.0562 5.155 17.9812C5.05813 17.7937 4.97 17.6 4.89187 17.4062C4.7075 17.6562 4.64437 17.925 4.69562 18.2437C4.70812 18.1437 4.76937 18.1 4.9075 18.2C5.3975 18.9875 5.66812 20.0187 5.36312 20.9187L5.22437 20.9875C4.57687 20.625 4.51188 19.775 4.385 19.1125C4.28813 18.3437 4.33562 17.5687 4.52875 16.8187C4.85375 16.5812 5.10125 17.1562 5.24062 17.4375ZM4.8 18.7C4.54625 18.9937 4.65875 19.5 4.77625 19.85C4.84562 20.1937 5.20875 20.4875 5.155 19.95C5.19813 19.2562 5.00938 19.1562 4.8 18.7ZM8.95 23.0375L16 30.7312L23.05 23.0375H8.95ZM7.6125 23.0562L4.2475 23.3625L8.2625 25.9312C8.1 25.7625 7.95625 25.575 7.81875 25.3812C7.49375 24.95 7.1625 24.5312 6.6375 24.3437C6.09062 23.9375 6.375 24.0125 6.81875 24.1812C6.75625 24.0687 6.775 24.0187 6.825 24.0187C6.9625 24.0062 7.35 24.2812 7.4375 24.4125L8.98125 26.3875L13.05 28.9937L7.6125 23.0562ZM24.3875 23.0562L21.7375 25.95C22.1375 25.7562 22.4437 25.4187 22.8 25.175C22.95 25.0875 23.0312 25.0562 23.0688 25.0562C23.2 25.0562 22.7312 25.5 22.5875 25.7C22 26.3125 21.5875 27.1375 20.8 27.5187L21.9813 25.9875C21.8375 26.0687 21.6063 26.1875 21.4688 26.2437L18.95 28.9937L23.6063 26.0187C23.9438 25.6 23.725 25.6687 23.25 25.9625L22.5375 26.3375C23.25 25.4812 24.4625 24.5687 25.0375 24.1125C25.6125 23.6562 26.0312 23.5 25.55 24.0187L24.7625 25.0187C25.3875 24.5437 24.8188 25.2625 24.4813 25.3625C24.4375 25.425 24.3937 25.4875 24.3438 25.5437L27.75 23.3625L24.3875 23.0562ZM14.75 24.1125V26.825H13.9125V24.95C13.6 24.8625 13.2625 25.0562 12.9563 24.9312C12.7188 24.75 13.0188 24.5062 13.2375 24.5625C13.4438 24.5562 13.7125 24.575 13.8188 24.3625C14.0938 24.0812 14.4187 24.0875 14.75 24.1125ZM16.5625 24.1437C17.3188 24.2187 18.075 24.1812 18.85 24.1812C18.9438 24.3687 18.9 24.6687 18.6437 24.675C18.1625 24.6937 17.3312 24.575 17.025 24.7125C16.5125 25.3687 17.3812 24.95 17.7375 25.0375C18.175 25.1062 18.675 25.2187 18.9312 25.6125C19.0625 25.8062 19.1 26.0687 18.975 26.2812C18.6125 26.7062 17.9125 27 17.3937 26.9625C16.9375 26.925 16.4188 26.8937 16.1063 26.5187C15.7063 25.8562 16.7625 26.1 16.8687 26.3187C17.2437 26.65 18.1375 26.4375 18.1625 26.025C18.2 25.7625 18.0313 25.6312 17.7313 25.5375C17.4313 25.4437 16.9437 25.6 16.65 25.65C16.3562 25.7 16.05 25.6812 16.0875 25.375C16.1375 25.1125 16.2563 24.8687 16.2563 24.5937C16.2625 24.4062 16.3625 24.1562 16.5625 24.1437ZM24.9062 24.4562C24.8937 24.4437 24.4688 24.8187 24.2875 24.9625L23.3 25.7812C23.9625 25.375 24.5063 25.0312 24.9062 24.4562ZM9.46875 25.3437C9.61875 25.3437 9.9375 25.6312 10.0562 25.7812L11.6875 27.725C11.2063 27.5937 10.8562 27.2812 10.5875 26.8687C10.1812 26.4125 9.88125 25.8312 9.2625 25.6437C8.7 25.3312 8.9375 25.2437 9.39375 25.5062C9.375 25.3875 9.40625 25.3437 9.46875 25.3437Z" fill="white"/>
</svg>
