<svg width="32" height="32" viewBox="0 0 32 32" fill="none" xmlns="http://www.w3.org/2000/svg">
<path d="M15.1812 1.27875C15.6 2.51312 16.4125 3.86562 15.4312 4.43125C13.0187 5.80875 10.3437 7.025 8.79372 10.1C6.45622 14.7312 5.7306 25.75 1.8631 28.1875C4.9006 28.425 7.46872 27.1687 8.66872 25.425C9.11247 27.5687 10.7062 29.6125 12.6062 30.7187C12.2812 28.9062 12.4937 27.0062 13.7937 24.9375C14.825 26.3687 15.7375 28.6437 18.4062 29.6437C17.3812 27.925 17.55 26.3437 17.7375 24.3812C18.2875 26.0625 20.1437 27.5062 22.2937 28.0625C21.2437 26.9 20.8 25.2187 20.9812 23.9375C21.8937 25.4937 23.6937 26.3375 25.175 26.4187C15.5937 15.1937 22.1312 8.19375 30.1375 14.2687C30.1062 11.1625 28.175 10.1 25.9375 8.2875C25.8812 7.325 25.3375 6.45625 24.8437 5.5775C21.4875 4.95312 17.25 2.95187 15.1812 1.27875ZM20.2562 5.95875C21.8875 6.6375 23.1437 7.36875 23.7812 8.175C22.7437 7.95 21.2937 7.95625 19.4062 8.10625C20.3437 7.5 20.4375 6.75 20.2562 5.95875Z" fill="white"/>
</svg>
