<svg width="32" height="32" viewBox="0 0 32 32" fill="none" xmlns="http://www.w3.org/2000/svg">
<path d="M6.87849 4.05095C6.61386 4.05264 6.3563 4.08764 6.10742 4.16339C5.19561 4.44089 4.55811 4.81439 4.07749 5.45833C3.5968 6.10226 3.25736 7.06564 3.10774 8.56539C3.06592 8.98464 3.23349 9.71439 3.59211 10.502C3.95074 11.2896 4.48261 12.1443 5.08142 12.9012L5.23705 13.0978L5.19467 13.345C5.00111 14.4757 4.96692 16.5141 5.17892 17.6436C5.23117 17.922 5.5393 18.5497 6.02961 19.2871C6.51999 20.0246 7.18036 20.9015 7.90661 21.8461C9.35905 23.7355 11.074 25.8945 12.2697 27.8803C12.2712 27.8827 12.2914 27.9131 12.4034 27.9357C12.5154 27.9583 12.6912 27.9532 12.8489 27.9138C13.0014 27.8758 13.1316 27.8035 13.1825 27.7602C12.5609 25.1173 12.1737 22.4986 10.8381 19.939L10.2067 18.7291L11.5073 19.1426C12.8598 19.5728 14.5522 19.6987 16.0945 19.6251C17.637 19.5514 19.0483 19.27 19.7738 18.9775L20.1268 18.8351L20.3902 19.11C23.0918 21.928 24.9794 25.238 27.4305 27.9184C27.438 27.9266 27.4218 27.9284 27.4874 27.9239C27.553 27.9194 27.6749 27.8793 27.7815 27.8043C27.888 27.7293 27.9756 27.6241 28.0141 27.5396C28.0527 27.4551 28.0553 27.4093 28.0309 27.3428C26.7561 23.8749 26.1205 20.4745 24.1659 17.2017L24.0344 16.9816L24.1144 16.7379C24.5437 15.4302 25.2301 14.0649 26.7957 12.969L27.0792 12.7705L27.3842 12.934C28.1001 13.3181 28.5794 13.3011 28.9899 13.055C29.8106 12.5628 30.4992 11.5625 30.7789 10.6935L29.8559 10.1741L29.797 9.94001C29.5454 8.94251 29.281 8.34751 28.8829 7.89508C28.4848 7.44258 27.9094 7.08908 26.9469 6.67364L26.5452 6.50033L26.6142 6.06845C26.6699 5.72033 26.6175 5.35089 26.5402 4.95795C24.276 6.82764 23.2345 8.98295 21.1319 11.2133L20.9321 11.4252L20.6438 11.3845C17.0288 10.8728 11.7109 11.0559 8.24036 11.4742C7.86255 11.5197 7.53649 11.403 7.21911 11.2409C6.90174 11.0788 6.59436 10.8534 6.31442 10.5851C5.75461 10.0486 5.2558 9.34327 5.3138 8.50652C5.35467 7.91739 5.48149 7.44101 5.75167 7.06839C6.02186 6.69583 6.4473 6.47876 6.86511 6.42651C7.70061 6.3222 8.54736 6.66608 9.49374 7.05401C11.3865 7.82995 13.6179 8.86714 15.3076 8.41133C15.9672 8.23333 17.2247 7.15577 18.0826 6.0467C18.5115 5.49214 18.8602 4.93039 19.0437 4.5137C19.1274 4.32364 19.1695 4.17076 19.1837 4.08101C19.152 4.07439 19.1116 4.07083 19.0365 4.07601C18.8699 4.08739 18.5947 4.16195 18.2515 4.31439C17.5649 4.6192 16.6117 5.21583 15.4593 5.99539C14.7103 6.50214 13.8332 6.51952 13.0223 6.31745C12.2114 6.11539 11.4134 5.71583 10.611 5.31495C9.40761 4.71376 8.22274 4.13933 7.14542 4.06014C7.05662 4.05354 6.96753 4.05047 6.87849 4.05095ZM28.322 8.61383L28.9365 9.99651L27.5319 9.77702L28.322 8.61383ZM4.70499 19.3036C3.8153 22.3679 2.48324 25.3706 1.22792 27.6128C1.22705 27.6145 1.22667 27.6138 1.22605 27.6146C1.22937 27.6184 1.23196 27.6228 1.23367 27.6275C1.2498 27.6645 1.31461 27.7501 1.41217 27.8172C1.50967 27.8843 1.63424 27.9315 1.72124 27.9427C1.80817 27.954 1.83599 27.9358 1.83624 27.9356C3.94055 26.3785 5.50605 24.4731 7.05311 22.5813L7.0148 22.5317C6.28467 21.5819 5.61311 20.6925 5.09292 19.9101C4.9523 19.6986 4.82286 19.4976 4.70499 19.3036ZM1.22592 27.6146C1.21917 27.6075 1.21974 27.6215 1.22592 27.6146V27.6146ZM19.812 20.1468C19.3664 20.2946 18.8412 20.4223 18.258 20.5231C17.4819 23.0288 16.1751 25.3898 14.9954 27.561L14.9865 27.5772L14.9767 27.5928C14.9573 27.6235 14.9609 27.6045 14.9736 27.6418C14.9863 27.6791 15.0369 27.7549 15.1155 27.811C15.2726 27.9232 15.4167 27.9593 15.566 27.8253L15.5689 27.8228L15.5719 27.8203C17.5897 26.0596 19.2752 23.9791 20.8995 21.3911C20.5482 20.9661 20.1872 20.5501 19.812 20.1468Z" fill="white"/>
</svg>
