<svg width="32" height="32" viewBox="0 0 32 32" fill="none" xmlns="http://www.w3.org/2000/svg">
<path d="M16 4.5625C12.0703 4.5625 10.2554 5.30925 9.42044 6.24869C8.69344 7.06656 8.58769 8.17669 8.57106 9.4375H10.4734C10.5755 8.56481 10.9302 7.785 11.6882 7.28013C12.6064 6.66875 13.9533 6.4375 16 6.4375C18.0471 6.4375 19.3944 6.67119 20.3123 7.28375C21.0694 7.789 21.424 8.56787 21.5264 9.4375H23.4289C23.4123 8.17669 23.3066 7.06656 22.5796 6.24869C21.7446 5.30925 19.9297 4.5625 16 4.5625ZM7.5625 10.4375V11.4375H11.4375V10.4375H7.5625ZM20.5625 10.4375V11.4375H24.4375V10.4375H20.5625ZM5.09188 12.5625C4.22525 12.5625 3.32737 12.9898 2.65625 13.6508C1.98513 14.3118 1.5625 15.1875 1.5625 16V28C1.5625 28.9062 1.78031 29.4846 2.14812 29.8521C2.51581 30.2194 3.09563 30.4375 4.00394 30.4375H28.0281C28.9189 30.4375 29.4895 30.2211 29.8543 29.8536C30.2192 29.4862 30.4375 28.9062 30.4375 28V16C30.4375 15.1875 30.0139 14.3094 29.3523 13.6477C28.6906 12.9861 27.8125 12.5625 27 12.5625H5.09188ZM14 16H18V20H22V24H18V28H14V24H10V20H14V16Z" fill="white"/>
</svg>
