<svg width="32" height="32" viewBox="0 0 32 32" fill="none" xmlns="http://www.w3.org/2000/svg">
<g clip-path="url(#clip0_45_175)">
<path d="M10.62 0.978363C9.963 2.02193 9.2205 3.10699 8.01449 4.13293C8.04324 4.16086 8.07287 4.18855 8.10231 4.21643L9.57418 4.19105L9.35375 4.8598C9.32218 4.95543 9.28718 5.0503 9.24887 5.1443C9.42406 5.26586 9.60793 5.38649 9.80337 5.50605L11.3691 6.46418L8.49475 6.41461C8.37262 6.56924 8.24099 6.72086 8.10068 6.8693C8.65068 7.58911 9.47849 8.28886 10.5179 8.91718L9.74262 8.89436L9.74168 9.24924C10.2748 9.64661 10.8537 10.0272 11.4393 10.4042C12.5712 9.68124 13.4262 8.87299 13.9087 8.05324L10.3241 8.11511L11.8899 7.15699C12.4505 6.81399 12.9227 6.4623 13.3325 6.1028C13.0139 5.76061 12.77 5.41768 12.6289 5.05968L12.3764 4.4193L14.2353 4.30536C12.8212 3.40061 11.4025 2.39436 10.62 0.978363ZM25.2828 1.8048C24.8742 2.61493 24.4153 3.6183 23.8054 4.59418C24.4884 5.74211 25.3322 6.84399 26.7287 7.86805L28.005 8.80368L24.7231 8.73586C25.1579 9.49436 25.9691 10.4145 26.8844 11.2388C28.0817 12.3172 29.4424 13.2746 30.2536 13.7334L30.9623 14.1346C30.9626 13.8744 30.9626 13.6732 30.9632 13.2613C29.8897 12.5152 29.1028 11.6491 28.6931 10.6238L28.4359 9.98018L31.1612 9.81892C30.5419 9.54655 29.9271 9.30249 29.3661 9.06518C28.8349 8.84055 28.3517 8.62099 27.9458 8.3633C27.5399 8.10568 27.1894 7.80368 27.0172 7.36686L26.7716 6.74424L29.0264 6.54561C27.5111 5.28149 26.0749 3.49836 25.2828 1.8048ZM5.25168 2.16374C4.46918 3.57974 3.05043 4.58605 1.6365 5.49086L3.49512 5.60474L3.24281 6.24499C2.94406 7.0028 2.19187 7.75268 1.16893 8.54955C1.1505 9.25018 1.14443 9.6533 1.14487 9.6578C1.14518 9.66055 1.15675 9.72655 1.163 9.85324C1.16537 9.89961 1.1655 10.0518 1.16712 10.1256L2.03137 10.1754L2.03112 10.2098L1.787 10.8209C1.71325 11.0056 1.63087 11.2003 1.527 11.3979L2.24731 10.9573C4.58331 9.52793 5.39856 7.94711 6.4595 6.28024L6.44493 6.67811L6.72456 6.56093C6.64475 6.39205 6.57568 6.22018 6.518 6.0453L6.2975 5.37655L7.95887 5.4053C6.69175 4.35374 5.92725 3.23668 5.25168 2.16361V2.16374ZM16.4412 3.81474C15.7657 4.88774 15.0012 6.00474 13.7341 7.05599L15.3955 7.02736L15.1751 7.69611C14.759 8.95786 13.7518 10.0642 12.3704 11.003L13.4902 11.7263L14.6322 11.7693L14.3743 12.4256C14.2302 12.792 14.0396 13.1381 13.8112 13.4662L14.3572 13.0793C15.4768 12.2862 16.6556 11.3609 17.5947 10.4834C18.2214 9.89811 18.7184 9.32593 19.0374 8.8638L15.8789 8.63161L16.9101 7.8333C17.5582 7.33161 18.2209 6.83705 18.8429 6.32218C17.8747 5.6193 16.9972 4.82068 16.4414 3.81468L16.4412 3.81474ZM22.2581 3.85724C21.4606 5.53255 19.9939 6.73474 18.5639 7.82636L20.5258 7.97049L20.3262 8.57836C20.0447 9.43461 19.2647 10.2916 18.2772 11.2141C17.6026 11.8443 16.8244 12.4822 16.0337 13.0845L19.1136 13.3029L18.9099 13.9141C18.2053 16.027 15.9821 17.4719 14.1714 18.6389C15.0143 19.1424 15.9007 19.6039 16.6597 20.0338C20.9309 21.2101 25.8843 20.4696 29.2174 19.0338C28.3931 18.5617 27.7272 18.1246 27.1707 17.5959C26.4329 16.8949 25.9162 16.0359 25.5221 14.8345L25.3336 14.259L28.5817 13.8459C27.8396 13.3327 27.0086 12.6965 26.215 11.9818C24.9581 10.8497 23.8154 9.60661 23.4703 8.35261L23.2925 7.70624L25.0342 7.7423C23.7108 6.48793 22.9378 5.14949 22.2582 3.8573L22.2581 3.85724ZM6.79875 7.61499C6.12331 8.68799 5.35887 9.80499 4.09168 10.8562L5.75306 10.8277L5.53243 11.4963C5.01743 13.0587 3.59656 14.3829 1.68087 15.4454L4.98962 15.5697L4.73175 16.2257C4.04112 17.9826 2.87175 19.5366 0.91687 20.6998C5.53468 22.1102 10.7027 22.6728 15.3907 20.4766C14.584 20.0356 13.7095 19.5607 12.8701 19.0041C11.7407 18.2551 10.7123 17.3955 10.2632 16.272L10.006 15.6282L13.031 15.4492C12.2917 14.9727 11.5676 14.4817 10.9337 13.9878C9.91837 13.1964 9.11743 12.4824 8.80743 11.6963L8.55493 11.0559L10.4137 10.9419C8.99993 10.0372 7.58131 9.03093 6.79868 7.61505L6.79875 7.61499ZM4.26625 11.8535L1.20275 11.9062C1.19225 11.9199 1.18275 11.9337 1.172 11.9472C1.15475 13.2907 1.144 14.0337 1.14062 14.596C2.5995 13.7799 3.69456 12.8249 4.26625 11.8535ZM10.8709 12.6287C11.0752 12.8142 11.3011 13.0059 11.5487 13.1989C11.7687 13.3704 12.0028 13.5442 12.2449 13.7182C12.5849 13.3946 12.8752 13.0591 13.1007 12.7124L10.8708 12.6287H10.8709ZM13.4745 13.9054C13.3576 14.0445 13.2329 14.1797 13.1028 14.3119C13.6826 14.6989 14.2873 15.0771 14.8766 15.4254L15.9794 16.0771C16.6881 15.4883 17.3003 14.8631 17.6803 14.2038L13.4745 13.9054ZM30.9622 14.5513L26.6882 15.0949C26.9799 15.8105 27.3162 16.3293 27.7682 16.7819L27.7551 16.1819C28.8461 16.1197 29.9242 15.9724 30.9676 15.7217C30.9636 15.2734 30.9624 14.9455 30.9622 14.5513ZM15.7147 16.2921L11.5651 16.5376C11.809 16.8617 12.1329 17.1829 12.5086 17.4947C12.9097 17.5749 13.3152 17.6486 13.7246 17.7137C14.3894 17.2687 15.0821 16.7941 15.7147 16.2921ZM1.98068 16.457L1.96256 18.6832C2.63418 18.0351 3.13081 17.3101 3.51443 16.5148L1.98068 16.457ZM27.8524 20.6154C26.961 20.9015 26.0076 21.1402 25.0161 21.3168L25.363 29.5781H28.0491L27.8524 20.6154ZM16.488 21.0531C16.3216 21.1408 16.1544 21.2249 15.9869 21.3059L15.9289 28.4481H19.2216L19.0699 21.5421C18.1983 21.4451 17.3332 21.2844 16.4879 21.0531H16.488ZM24.0217 21.4714C23.0789 21.5959 22.1104 21.662 21.1355 21.6585L21.1114 30.3924H24.3964L24.0217 21.4713V21.4714ZM1.9355 22.043L1.87775 29.1705H4.64437L4.76781 22.6456C3.80768 22.4916 2.86093 22.2862 1.93543 22.0429L1.9355 22.043ZM12.8555 22.4349C12.132 22.6142 11.4039 22.7433 10.6744 22.8276L10.9191 26.9648H12.9856L12.8554 22.4348L12.8555 22.4349ZM5.76531 22.7866L5.60856 31.0716L10.1518 30.9287L9.67781 22.9156C8.36718 22.9962 7.05681 22.9421 5.76531 22.7867V22.7866Z" fill="white"/>
</g>
<defs>
<clipPath id="clip0_45_175">
<rect width="32" height="32" fill="white"/>
</clipPath>
</defs>
</svg>
