<svg width="32" height="32" viewBox="0 0 32 32" fill="none" xmlns="http://www.w3.org/2000/svg">
<path d="M8.82625 1.03519C9.04594 5.26519 8.88875 9.23506 8.56837 13.1464L7.09181 12.3769L7.99019 14.9766L4.15625 13.4669L7.47062 16.8477L4.89062 17.0214C6.7995 18.2444 9.175 19.0449 10.5606 20.7422C12.2979 23.2216 13.2645 25.7206 13.3575 30.4688C14.78 31.1335 16.5499 31.0975 17.8321 30.4688C18.1372 25.5879 18.7761 23.4002 20.5214 20.795C20.5238 20.7915 20.5271 20.7886 20.5293 20.7851C21.9095 19.0583 24.3074 18.2547 26.2324 17.0215L23.6543 16.8477L26.9668 13.4668L23.1347 14.9765L24.0331 12.3769L22.6425 13.1035C21.9648 9.28225 21.4525 5.45975 21.6152 1.63869C19.8399 4.38956 18.3837 7.849 17.629 11.0449L16.4921 10.7773C16.6834 9.96806 16.9146 9.14606 17.1836 8.32419C16.0816 8.1375 14.9838 8.10569 13.8828 8.25387C14.1903 9.05406 14.4697 9.88512 14.7128 10.7539L13.5878 11.0682C12.5156 7.2385 10.6988 4.14981 8.82625 1.03519ZM11.7481 16.3086C12.3364 16.3042 12.9412 16.6367 13.543 17.2617C14.6691 18.4314 14.4632 20.2411 13.4863 21.6699C13.6594 19.1407 12.5394 17.6777 10.2423 17.1386C10.7235 16.5792 11.229 16.3125 11.7481 16.3086ZM19.6602 16.3086C20.1271 16.3121 20.5766 16.5296 20.9961 16.9805L20.9531 17.1836C18.7541 17.7561 17.6378 19.2076 17.707 21.6699C16.7878 20.2411 16.6548 18.4314 17.8281 17.2617C18.455 16.6367 19.072 16.3042 19.6602 16.3086Z" fill="white"/>
</svg>
