<svg width="32" height="32" viewBox="0 0 32 32" fill="none" xmlns="http://www.w3.org/2000/svg">
<path d="M22.7852 1.71875C21.2514 2.3935 18.6566 2.84963 15.668 2.84963C12.7117 2.84963 10.0894 2.4185 8.54881 1.75587C6.71731 4.04563 6.07 7.4025 6.6875 11.0625C7.35812 15.0373 9.83462 18.5375 12.043 20.7987C13.1233 20.4893 14.3519 20.3164 15.6582 20.3164C16.9535 20.3164 18.1724 20.4864 19.2461 20.791C21.4649 18.5173 23.9745 15.0041 24.6466 11.0625C25.2741 7.38237 24.632 4.00988 22.7853 1.71875H22.7852ZM11.0586 6.72062C11.7316 6.73706 12.3871 7.03031 12.9297 7.48825C13.6532 8.09888 14.2176 9.00887 14.5078 10.0918C14.798 11.1747 14.7627 12.2441 14.4414 13.1347C14.1201 14.0253 13.479 14.763 12.5801 15.0038C11.6811 15.2447 10.7567 14.9269 10.0332 14.3163C9.30968 13.7057 8.74525 12.7958 8.45512 11.7128C8.16487 10.6299 8.20012 9.55844 8.5215 8.66781C8.84275 7.77731 9.48387 7.04156 10.3827 6.80069C10.6076 6.7405 10.8342 6.71513 11.0586 6.72062ZM20.2305 6.72062C20.4549 6.71525 20.6815 6.74062 20.9062 6.80075C21.8052 7.04163 22.4462 7.77738 22.7675 8.668C23.0889 9.55863 23.1242 10.6299 22.834 11.7129C22.5438 12.7959 21.9794 13.7058 21.2559 14.3164C20.5323 14.927 19.6079 15.2448 18.709 15.0039C17.8101 14.7631 17.169 14.0253 16.8477 13.1348C16.5264 12.2441 16.4911 11.1747 16.7812 10.0918C17.0714 9.00869 17.6358 8.09881 18.3594 7.48825C18.902 7.03025 19.5575 6.737 20.2305 6.72062ZM10.9511 7.88669C10.8611 7.89062 10.7719 7.90456 10.6855 7.92775C10.2246 8.05125 9.84587 8.43588 9.61912 9.06444C9.39237 9.69306 9.35068 10.5394 9.584 11.4102C9.81731 12.281 10.2765 12.9929 10.7871 13.4239C11.2977 13.8548 11.8165 13.9986 12.2774 13.8751C12.5896 13.7913 12.863 13.5876 13.0781 13.2696C13.0433 13.2824 13.0089 13.2931 12.9726 13.3028C12.0487 13.5503 11.01 12.6752 10.6543 11.3478C10.2986 10.0203 10.7596 8.74375 11.6836 8.49619C11.8844 8.44231 12.0914 8.44287 12.2948 8.48837C12.2554 8.45119 12.2157 8.41475 12.1757 8.38087C11.7927 8.05775 11.4054 7.8955 11.0409 7.88681C11.0106 7.88606 10.9811 7.88556 10.9511 7.88681V7.88669ZM20.248 7.88669C19.8836 7.89544 19.4962 8.05769 19.1132 8.38087C18.6026 8.81181 18.1435 9.52181 17.9101 10.3926C17.6768 11.2634 17.7186 12.1098 17.9453 12.7383C18.1721 13.3669 18.5489 13.7516 19.0097 13.8751C19.4707 13.9986 19.9913 13.8548 20.5019 13.4238C20.5563 13.3781 20.6112 13.3294 20.6641 13.2774C20.4189 13.3563 20.166 13.3682 19.9219 13.3028C18.998 13.0553 18.5388 11.7787 18.8946 10.4513C19.2503 9.12375 20.2871 8.2485 21.211 8.49613C21.2893 8.51706 21.3641 8.54688 21.4356 8.58206C21.216 8.23625 20.9312 8.01556 20.6035 7.92769C20.4883 7.89688 20.3695 7.88381 20.2481 7.88669H20.248ZM15.6582 21.4863C13.7802 21.4863 12.0846 21.8814 10.9082 22.4826C9.73193 23.0836 9.1485 23.8335 9.1485 24.5254C9.1485 24.7028 9.18693 24.8849 9.26375 25.0664C9.59081 24.7986 9.967 24.5591 10.3769 24.3497C11.7677 23.6391 13.6189 23.2247 15.6581 23.2247C17.6975 23.2247 19.5487 23.6391 20.9394 24.3497C21.3486 24.5587 21.7244 24.7974 22.0508 25.0645C22.1271 24.8836 22.166 24.7024 22.166 24.5255C22.166 23.8336 21.5826 23.0836 20.4062 22.4826C19.2299 21.8814 17.5362 21.4863 15.6581 21.4863H15.6582ZM15.6582 24.3926C13.7802 24.3926 12.0846 24.7877 10.9082 25.3888C9.73193 25.9898 9.1485 26.7397 9.1485 27.4317C9.1485 28.1236 9.73187 28.8736 10.9082 29.4747C12.0847 30.0758 13.7803 30.4728 15.6582 30.4728C17.5364 30.4727 19.23 30.0758 20.4064 29.4747C21.5827 28.8736 22.1661 28.1236 22.1661 27.4317C22.1661 26.7398 21.5827 25.9898 20.4064 25.3888C19.23 24.7876 17.5364 24.3925 15.6582 24.3925L15.6582 24.3926ZM15.6582 26.1544C16.6082 26.1544 17.4677 26.2911 18.1426 26.5411C18.4801 26.6661 18.7749 26.8168 19.0176 27.0294C19.2603 27.2419 19.4707 27.5554 19.4707 27.9336C19.4707 28.3117 19.2603 28.6254 19.0176 28.8379C18.7749 29.0504 18.4801 29.2012 18.1426 29.3262C17.4677 29.5762 16.6082 29.7128 15.6582 29.7128C14.7084 29.7128 13.8469 29.5761 13.1719 29.3261C12.8344 29.2011 12.5416 29.0503 12.2988 28.8377C12.0562 28.6252 11.8457 28.3116 11.8457 27.9334C11.8457 27.5553 12.0562 27.2417 12.2988 27.0292C12.5416 26.8166 12.8344 26.6658 13.1719 26.5408C13.8469 26.2908 14.7084 26.1541 15.6582 26.1541V26.1544ZM15.6582 27.3223C14.8252 27.3223 14.0717 27.454 13.5782 27.6367C13.3314 27.7282 13.1524 27.8347 13.0684 27.9083C13.0502 27.9243 13.052 27.9244 13.0431 27.9338C13.052 27.9431 13.0502 27.9431 13.0684 27.9591C13.1524 28.0327 13.3314 28.1412 13.5782 28.2326C14.0717 28.4153 14.8252 28.5451 15.6582 28.5451C16.4913 28.5451 17.2449 28.4153 17.7383 28.2326C17.9851 28.1411 18.1641 28.0326 18.2481 27.9591C18.2662 27.9431 18.2644 27.943 18.2734 27.9337C18.2644 27.9243 18.2662 27.9242 18.2481 27.9083C18.1639 27.8348 17.9849 27.7283 17.7382 27.6369C17.2447 27.4541 16.4911 27.3223 15.6582 27.3223Z" fill="white"/>
</svg>
