<svg width="32" height="32" viewBox="0 0 32 32" fill="none" xmlns="http://www.w3.org/2000/svg">
<path d="M3.38281 6.38672C2.40631 11.067 4.65906 14.1117 7.39062 15.7968C5.32419 15.3087 3.32488 14.5792 1.25 13.4941C2.84375 18.3371 6.32275 19.4826 9.36913 19.166C7.68581 20.0567 5.90712 20.7472 4.12306 21.2147C8.50056 23.9342 11.6847 22.215 13.4356 19.8222C11.5489 18.7077 10.1423 16.4601 9.49606 13.6757C7.12106 11.4998 5.03269 8.98747 3.38275 6.38666L3.38281 6.38672ZM28.5664 6.38672C26.9166 8.98722 24.8279 11.4983 22.4531 13.6738C21.807 16.459 20.4006 18.7075 18.5138 19.8223C20.2644 22.2151 23.4486 23.9343 27.8263 21.2148C26.0424 20.7473 24.2651 20.0567 22.582 19.166C25.628 19.482 29.1058 18.336 30.6992 13.4942C28.6244 14.5793 26.625 15.3088 24.5586 15.7969C27.2901 14.1117 29.543 11.0671 28.5664 6.38672ZM15.9746 8.02341C14.5021 8.02341 13.1664 8.24691 12.1484 8.63866C11.6394 8.83447 11.2081 9.07028 10.8711 9.37678C10.5341 9.68347 10.2773 10.0974 10.2773 10.5741C10.2773 10.6297 10.2804 10.6844 10.2871 10.7382C10.4509 14.7977 12.2921 18.0852 14.4921 19.0624L14.9259 19.2558L14.8262 19.7187C14.2859 22.2363 13.5403 23.6943 12.2674 24.533C11.5679 24.9942 11.3809 25.359 11.3691 25.4784C11.3572 25.5978 11.4169 25.7409 11.7968 25.9725C12.5567 26.4357 14.2921 26.7948 15.9746 26.7948C17.6541 26.7948 19.3032 26.4233 20.0175 25.9568C20.3748 25.7237 20.4433 25.5681 20.4316 25.4237C20.42 25.2792 20.2481 24.9278 19.6133 24.4725C18.4054 23.6061 17.6553 22.2158 17.1231 19.7186L17.0234 19.2557L17.457 19.0623C19.657 18.0852 21.4984 14.7976 21.662 10.7381H21.6601C21.6667 10.6843 21.6699 10.6297 21.6699 10.574C21.6699 10.0974 21.4151 9.68341 21.078 9.37678C20.7409 9.07022 20.3078 8.83447 19.7986 8.63866C18.7806 8.24678 17.4469 8.02334 15.9745 8.02334L15.9746 8.02341ZM15.9746 9.19141C17.3256 9.19141 18.5467 9.40828 19.3789 9.72847C19.795 9.8886 20.1107 10.0762 20.291 10.2402C20.4714 10.4043 20.5019 10.5077 20.5019 10.5742C20.5019 10.6407 20.4714 10.7441 20.2911 10.9082C20.1108 11.0723 19.7951 11.2598 19.3789 11.42C18.5467 11.7402 17.3257 11.9571 15.9747 11.9571C14.6237 11.9571 13.4007 11.7402 12.5684 11.42C12.1523 11.2598 11.8367 11.0722 11.6563 10.9081C11.4759 10.7441 11.4454 10.6406 11.4454 10.5742C11.4454 10.5077 11.476 10.4043 11.6563 10.2402C11.8367 10.0762 12.1523 9.8886 12.5684 9.72847C13.4007 9.40828 14.6237 9.19135 15.9747 9.19135L15.9746 9.19141Z" fill="white"/>
</svg>
