<svg width="32" height="32" viewBox="0 0 32 32" fill="none" xmlns="http://www.w3.org/2000/svg">
<path d="M9.8809 4.69727C8.59078 5.55064 7.00447 6.1037 5.54103 6.32414C5.96553 9.38258 7.17478 11.5825 8.41416 12.4395C9.07184 12.8945 9.68647 13.0027 10.3145 12.7872C10.8726 12.5957 11.4788 12.1016 12.0488 11.1876C10.3655 9.29839 10.0735 6.74695 9.88097 4.69733L9.8809 4.69727ZM22.1875 4.70314C21.995 6.75252 21.7008 9.30189 20.0175 11.1894C20.5873 12.1025 21.1961 12.5956 21.754 12.7871C22.3819 13.0026 22.9946 12.8943 23.6524 12.4395C24.8899 11.5836 26.0974 9.38808 26.5235 6.33602C24.9925 6.13789 23.5358 5.62658 22.1875 4.70314ZM16.0313 5.51377C14.0813 5.51377 12.3593 5.95064 11.3144 6.6172C11.3762 6.95864 11.4488 7.2992 11.5372 7.63283C12.5458 7.19895 14.183 6.91595 16.0332 6.91595C17.8835 6.91595 19.5207 7.19895 20.5295 7.63283C20.6177 7.2992 20.6904 6.95864 20.752 6.6172C19.7069 5.9502 17.9823 5.51377 16.0313 5.51377ZM4.7129 8.27339L1.7304 11.1153C3.58978 13.4393 5.6704 14.6669 7.13478 14.7851C7.20634 14.7909 7.27559 14.7936 7.34378 14.7949C7.45578 14.321 7.59147 13.8543 7.75003 13.3983C6.39228 12.4594 5.31165 10.6649 4.7129 8.27339ZM27.3535 8.27339C26.7542 10.6646 25.6742 12.4595 24.3164 13.3984C24.3145 13.3998 24.3125 13.4009 24.3106 13.4023C24.4693 13.8571 24.6061 14.3223 24.7187 14.7948C24.7881 14.7936 24.8587 14.7911 24.9316 14.7851C26.3962 14.6669 28.4785 13.4398 30.3378 11.1151L27.3535 8.27339H27.3535ZM12.041 9.05277C12.3248 9.65902 12.6942 10.2155 13.1817 10.6875L13.502 10.9981L13.2872 11.3867C13.1747 11.5925 13.0577 11.786 12.9376 11.9687C14.9746 12.7165 17.179 12.6647 19.1212 11.957C19.0037 11.7777 18.8895 11.5881 18.7793 11.3866L18.5665 10.998L18.8848 10.6874C19.3555 10.2318 19.7166 9.69702 19.9961 9.11514C17.2694 9.77352 14.6586 9.64658 12.0411 9.05264L12.041 9.05277ZM19.8848 12.9159C17.4846 13.8959 14.6954 13.9671 12.1719 12.9257C11.7157 13.3863 11.2208 13.7116 10.6934 13.8926C10.0733 14.1053 9.4284 14.0996 8.81447 13.916C8.38278 15.203 8.14072 16.5783 8.14072 17.9413C8.14072 18.3985 8.17584 18.8679 8.24422 19.3457L15.8946 17.4765L16.0333 17.4413L16.172 17.4765L23.8438 19.3496C23.8992 18.8717 23.9278 18.4013 23.9278 17.9413C23.9278 16.5795 23.6847 15.2043 23.2501 13.9179C22.6368 14.1009 21.9925 14.1051 21.3732 13.8925C20.842 13.7103 20.3437 13.3818 19.8848 12.916L19.8848 12.9159ZM29.7892 13.4511C28.2014 14.9616 26.5349 15.8273 25.0254 15.9491C24.9987 15.9513 24.972 15.9514 24.9454 15.953C25.0213 16.4577 25.0698 16.9673 25.0879 17.4784C26.5133 17.7146 28.5081 17.4845 30.7129 16.5819L29.7892 13.4511V13.4511ZM2.2774 13.453L1.35553 16.582C3.55978 17.484 5.55365 17.7145 6.97853 17.4784C6.99665 16.9671 7.04578 16.4578 7.12103 15.953C7.09447 15.9514 7.06778 15.9513 7.04103 15.9491C5.53191 15.8272 3.86478 14.963 2.27728 13.453H2.2774ZM16.0332 18.6445L8.46697 20.494C8.59022 21.002 8.74884 21.5159 8.93572 22.0331C11.0317 21.5497 13.3876 21.314 15.717 21.2968C15.891 21.2956 16.0647 21.2957 16.2384 21.2968C18.7545 21.3133 21.214 21.5828 23.2559 22.0625C23.4198 21.541 23.5559 21.0218 23.6603 20.5078L16.0332 18.6445L16.0332 18.6445ZM15.7267 22.4823C13.5335 22.4973 11.3204 22.7046 9.37509 23.1326C9.59922 23.6429 9.85122 24.153 10.127 24.66C11.8998 24.5066 13.8179 24.4302 15.7188 24.4236C15.8915 24.4231 16.0642 24.4232 16.2363 24.4236C18.3327 24.4303 20.3892 24.5211 22.1876 24.6835C22.4401 24.1826 22.6648 23.6771 22.8634 23.1718C20.8228 22.7098 18.2893 22.4647 15.7267 22.4823ZM15.7227 25.5955C14.0451 25.6011 12.3562 25.6602 10.7774 25.7792C11.1222 26.3342 11.4945 26.8825 11.8907 27.4178C12.1927 27.4866 12.7543 27.5635 13.4747 27.6073C14.2997 27.6573 15.2911 27.6783 16.2755 27.6735C17.2598 27.6689 18.2386 27.6382 19.0392 27.5857C19.7219 27.541 20.2413 27.4702 20.506 27.4157C20.8938 26.8891 21.2485 26.349 21.5723 25.8026C19.7916 25.6609 17.7658 25.5887 15.7227 25.5955Z" fill="white"/>
</svg>
