<svg width="32" height="32" viewBox="0 0 32 32" fill="none" xmlns="http://www.w3.org/2000/svg">
<path d="M10.4278 7.02148C7.80215 9.43111 4.31434 11.7104 1.20715 12.3984C3.65072 13.2971 6.7719 13.5682 9.62697 12.9707C12.956 14.9288 17.6329 14.9822 21.1817 12.9707C23.9936 13.9267 27.2033 13.7944 30.5372 12.3888C26.8145 11.7884 22.7245 9.16455 20.8341 7.02155C17.3652 9.4978 13.8966 9.03067 10.4278 7.02155L10.4278 7.02148ZM2.07028 14.1484C3.1534 15.9966 5.09947 19.1014 7.67965 22.3399C9.38215 24.4766 12.4675 24.2832 15.8028 24.2832C18.8839 24.2832 22.1959 24.3273 23.7793 22.3399C26.1371 19.3805 28.0662 16.581 29.2929 14.7149C21.4883 19.998 9.49459 20.5387 2.07028 14.1485V14.1484Z" fill="white"/>
</svg>
