<svg width="32" height="32" viewBox="0 0 32 32" fill="none" xmlns="http://www.w3.org/2000/svg">
<path d="M20.8612 1.26175C18.3631 1.26175 15.8638 2.2125 13.9609 4.11525C10.2943 7.78194 10.1612 13.6602 13.5606 17.4884L12.5742 18.4726L13.4023 19.3008L14.3867 18.3145C18.2147 21.7139 24.0929 21.5807 27.7597 17.9141C31.5651 14.1087 31.5652 7.92069 27.7597 4.11531C25.8571 2.2125 23.3596 1.26175 20.8612 1.26175ZM20.8612 2.42188C23.0581 2.42188 25.2541 3.26188 26.9336 4.94144C30.2927 8.3005 30.2926 13.7289 26.9336 17.0879C23.7132 20.3083 18.5924 20.4406 15.2149 17.4863L15.2285 17.4727C15.0816 17.3446 14.9368 17.2121 14.7969 17.0723C14.6589 16.9344 14.5289 16.7913 14.4023 16.6466L14.3887 16.6603C11.4343 13.2828 11.5667 8.16181 14.7871 4.94144C16.4667 3.26188 18.6644 2.42188 20.8612 2.42188ZM20.8612 3.59769C18.9669 3.59769 17.0719 4.32269 15.6231 5.77144C12.7255 8.66906 12.7255 13.3486 15.6231 16.2461C16.2569 16.8799 16.9751 17.3759 17.7422 17.7324C16.1853 16.5395 15.1816 14.6616 15.1816 12.5487C15.1816 11.591 15.3873 10.6807 15.7578 9.86119C15.4975 11.1415 15.7853 12.4162 16.6622 13.2929C18.1986 14.8294 20.9587 14.5628 22.8262 12.6953C24.6937 10.8278 24.9603 8.06775 23.4237 6.53119C23.2752 6.38269 23.1147 6.25163 22.9452 6.13663C25.7659 6.67713 27.9424 9.03319 28.2109 11.9414C28.4884 9.7495 27.7846 7.4585 26.0976 5.77138C24.6488 4.32263 22.7557 3.59763 20.8613 3.59763L20.8612 3.59769ZM11.0567 18.6055L2.63088 27.0312L4.791 29.1914L13.2169 20.7656L11.0566 18.6054L11.0567 18.6055ZM2.5 28.5508L1.5 29.5487L2.32625 30.375L3.32425 29.375L2.5 28.5508Z" fill="white"/>
</svg>
