<svg width="32" height="32" viewBox="0 0 32 32" fill="none" xmlns="http://www.w3.org/2000/svg">
<path d="M5.66687 1.5625L11.7187 10.5813L11.625 9.04375L6.60625 1.5625H5.66687ZM8.1875 1.5625L17.95 9.25625L17.6375 6.64375L25.2312 14.7375L27.1875 30.4375H30.4187V1.5625H8.1875ZM12.5937 7.7L12.8187 11.5625C12.5062 12.025 11.3125 13.5938 9.2625 13.8625C9.00625 13.8938 8.8125 14.1125 8.8125 14.375C8.8125 14.375 8.7625 16.7 11.6687 19.5688L13.8375 16.0875C13.4 15.6312 12.9625 15.0562 12.4937 14.2937L14.2187 12.4125C14.3312 12.2938 14.375 12.1375 14.35 11.975L13.625 7.5875C13.4562 6.8875 12.5687 7.11875 12.5937 7.7ZM8.23125 9.3875C7.65624 9.3875 7.175 9.625 6.93125 10.0312C6.4875 10.7688 6.925 11.85 7.91875 12.4438C8.9125 13.0375 10.075 12.9062 10.5125 12.1625C10.95 11.4188 10.5062 10.3438 9.51875 9.75625C9.1125 9.51875 8.6625 9.3875 8.23125 9.3875ZM17.95 14.15L15.2875 16.1938L14.5312 21.2C15.3062 21.3938 16.1187 21.45 16.925 21.3375L18.3312 21.1437L21.2 24.2938C21.3187 24.4188 21.4875 24.4812 21.6562 24.4562L23.4687 24.2062C24.1687 24 23.9187 23.175 23.3812 23.1688L22.0437 23.2125L20.1312 19.0812C20.0625 18.9437 19.9437 18.8438 19.8 18.8L17.3812 18.1L18.7937 16.8875L22.0625 18.0625C22.3562 18.1562 22.6437 17.9938 22.7375 17.7313L23.3937 15.6062C23.5 14.9 22.6625 14.7562 22.425 15.2312L21.9187 16.3L18.55 14.125C18.35 14.0125 18.125 14.0312 17.95 14.15ZM13.9937 17.8125L12.475 20.2437C12.8062 20.4812 13.1625 20.6875 13.5312 20.85L13.9937 17.8125ZM15.1812 22.4562L17.15 30.4375H17.95L15.9875 22.475C15.7187 22.4813 15.45 22.475 15.1812 22.4562Z" fill="white"/>
</svg>
