<svg width="32" height="32" viewBox="0 0 32 32" fill="none" xmlns="http://www.w3.org/2000/svg">
<path d="M15.9982 1.42188C13.2228 1.42188 10.6794 3.0115 8.79503 5.67969C6.91053 8.34781 5.72272 12.0803 5.72272 16.2149C5.72272 20.3494 6.91053 24.0817 8.79497 26.75C10.6793 29.4181 13.2228 31.0078 15.9981 31.0078C18.7732 31.0078 21.3148 29.4182 23.1992 26.75C25.0836 24.0819 26.2734 20.3494 26.2734 16.2148C26.2734 12.0803 25.0836 8.34794 23.1992 5.67969C21.3148 3.01156 18.7732 1.42188 15.998 1.42188H15.9982ZM20.8399 8.69144C21.5249 11.1535 21.829 13.6141 21.8926 16.0762C22.9521 15.8872 24.004 15.6541 25.0411 15.3612C24.6733 16.2818 23.4133 17.0046 21.9044 17.3632C21.8868 20.1176 21.6007 22.8726 21.2422 25.6269C20.7838 22.9513 20.391 20.2752 20.2363 17.5996C18.8613 17.6678 17.4707 17.4258 16.467 16.7675C17.7038 16.6486 18.9457 16.5192 20.1837 16.3456C20.1114 13.7937 20.2783 11.2433 20.8399 8.69144ZM9.82615 14.6602C9.94384 14.6586 10.0605 14.6597 10.1778 14.6641C9.74934 14.9937 9.47278 15.5114 9.47278 16.0938C9.47278 17.0894 10.2797 17.8965 11.2754 17.8965C12.2712 17.8965 13.0782 17.0894 13.0782 16.0938C13.0782 15.8053 13.0111 15.5328 12.8907 15.291C13.7238 15.6448 14.5453 16.1419 15.3555 16.7676C13.0388 20.6524 7.30572 18.3343 6.78128 15.3613C7.81578 14.8986 8.82922 14.6732 9.82628 14.6602H9.82615Z" fill="white"/>
</svg>
