<svg width="32" height="32" viewBox="0 0 32 32" fill="none" xmlns="http://www.w3.org/2000/svg">
<path d="M4.41088 1.07938L4.10651 2.20713C5.62076 2.61606 6.98276 3.18044 8.19888 3.87613C6.86913 4.86113 5.99219 6.54519 5.99219 8.45825C5.99219 9.30781 6.16532 10.1122 6.47388 10.8304C5.11013 12.1033 4.28613 13.9178 4.28613 16.2994C4.28613 20.7169 6.96469 24.5322 10.8393 26.3623L8.91988 30.7598H10.1934L11.918 26.8088C12.1061 26.8761 12.2961 26.9394 12.4886 26.9975C12.7111 27.17 12.9378 27.3256 13.1679 27.4654L12.3535 30.7598H13.5585L14.2426 27.9898C14.6711 28.1489 15.1077 28.2538 15.5488 28.3028V30.7598H16.7169V28.3C17.2089 28.2434 17.6951 28.1165 18.1704 27.9215L18.8711 30.7598H20.0743L19.2343 27.3586C19.4468 27.2198 19.6561 27.0674 19.8615 26.8997C20.0628 26.8328 20.2614 26.7606 20.4576 26.6837L22.2363 30.7597H23.5098L21.5223 26.2058C25.2239 24.3204 27.7561 20.5944 27.7561 16.2994C27.7561 13.9798 26.9742 12.1981 25.6736 10.9308C26.01 10.1873 26.2008 9.34788 26.2008 8.45831C26.2008 6.55206 25.3303 4.87331 24.0087 3.88681C25.2361 3.17844 26.5994 2.61119 28.0959 2.20706L27.7916 1.07938C26.1503 1.52263 24.6533 2.15719 23.3072 2.95438C21.1769 1.77688 18.4828 1.19413 15.7938 1.19725C13.2371 1.20025 10.6857 1.73319 8.62788 2.78775C7.36369 2.07563 5.95913 1.4975 4.41101 1.07944L4.41088 1.07938ZM15.7942 2.41688C18.0721 2.41413 20.3539 2.83594 22.1744 3.68863C19.3549 5.68188 17.3046 8.45113 16.1026 11.6755C14.8946 8.417 12.8125 5.55938 9.81707 3.52425C11.555 2.79025 13.6727 2.41925 15.7943 2.41663L15.7942 2.41688ZM10.5689 6.69019C11.7814 6.69019 12.777 7.68538 12.777 8.89769C12.777 10.1102 11.7814 11.1054 10.5689 11.1054C9.35638 11.1054 8.36063 10.11 8.36063 8.8975C8.36063 7.68513 9.35638 6.69 10.5689 6.69V6.69019ZM21.7839 6.69019C22.9964 6.69019 23.992 7.68538 23.992 8.89769C23.992 10.1102 22.9964 11.1054 21.7839 11.1054C20.5713 11.1054 19.5756 10.1103 19.5756 8.89775C19.5756 7.68538 20.5712 6.69025 21.7837 6.69025L21.7839 6.69019ZM14.8853 11.7333C15.1385 12.38 15.3554 13.0458 15.5368 13.7279L16.1011 15.8506L16.6655 13.7279C16.8464 13.0474 17.0635 12.3859 17.3158 11.7454C18.2152 13.0873 19.6499 13.957 21.2681 13.957C22.1706 13.957 23.0158 13.6854 23.7436 13.2135C23.4934 17.6416 22.5598 21.0089 21.2848 23.302C19.7871 25.996 17.8879 27.1941 16.0638 27.1668C14.2398 27.1394 12.3259 25.8748 10.8261 23.1621C9.54907 20.8525 8.61607 17.5051 8.36644 13.1603C9.11251 13.6656 9.98813 13.9569 10.925 13.9569C12.5479 13.9569 13.9865 13.0819 14.8853 11.7331V11.7333ZM7.05613 11.8675C7.08319 11.9056 7.11013 11.9438 7.13801 11.981C7.27332 17.0644 8.28738 20.9845 9.80382 23.7274C10.0323 24.1405 10.2734 24.5264 10.5249 24.8868C7.47994 23.1204 5.45419 19.9309 5.45419 16.2996C5.45419 14.298 6.03082 12.8944 7.05619 11.8676L7.05613 11.8675ZM25.0738 11.9568C26.0444 12.9753 26.5879 14.3555 26.5879 16.2996C26.5879 19.8228 24.6806 22.9298 21.7861 24.7249C21.9655 24.454 22.1393 24.1694 22.3058 23.8698C23.816 21.1535 24.8263 17.2354 24.9701 12.0902C25.0051 12.046 25.0402 12.0021 25.0738 11.9568H25.0738ZM10.2303 15.6475C9.99569 16.0389 9.84926 16.5556 9.84926 17.1C9.84926 18.3541 10.6052 19.3447 11.5255 19.3447C12.3086 19.3447 12.9851 18.6206 13.1636 17.6281C12.8704 17.8843 12.5091 18.0244 12.1351 18.0244C11.1364 18.0244 10.2962 16.9859 10.2303 15.6475ZM21.8498 15.8023C21.7838 17.1406 20.9438 18.1792 19.9449 18.1792C19.5709 18.1792 19.2098 18.0391 18.9163 17.7829C19.0949 18.7754 19.7713 19.4996 20.5544 19.4996C21.4748 19.4996 22.1926 18.5089 22.1926 17.2548C22.1926 16.7104 22.0843 16.1938 21.8498 15.8023ZM17.5541 17.6129C17.3348 18.4313 16.6599 19.0617 16.021 19.0617C15.397 19.0617 14.7329 18.4331 14.5246 17.655C14.4738 17.8673 14.4151 18.0944 14.4151 18.3298C14.4151 19.5313 15.1394 20.4804 16.0212 20.4804C16.9029 20.4804 17.6273 19.5313 17.6273 18.3298C17.6273 18.0806 17.611 17.836 17.5543 17.6129H17.5541V17.6129ZM19.7441 21.7821C19.5294 22.8166 18.8561 23.5954 18.0285 23.5954C17.5135 23.5954 17.044 23.3079 16.7145 22.8363C16.7606 23.9816 17.4686 24.9026 18.3206 24.9026C19.2023 24.9026 19.9266 23.9113 19.9266 22.7098C19.9266 22.3718 19.8451 22.0674 19.7441 21.782L19.7441 21.7821ZM12.5169 21.8663C12.436 22.1268 12.4074 22.4094 12.4074 22.7098C12.4074 23.9113 13.1318 24.9026 14.0134 24.9026C14.8655 24.9026 15.5369 23.9816 15.583 22.8362C15.2535 23.3078 14.784 23.5953 14.2689 23.5953C13.4617 23.5953 12.7493 22.8619 12.5169 21.8662L12.5169 21.8663Z" fill="white"/>
</svg>
