<svg width="32" height="32" viewBox="0 0 32 32" fill="none" xmlns="http://www.w3.org/2000/svg">
<path d="M16 2.0625C14.6978 2.0625 13.5625 3.3275 13.5625 5C13.5625 6.6725 14.6978 7.9375 16 7.9375C17.3022 7.9375 18.4375 6.6725 18.4375 5C18.4375 3.3275 17.3022 2.0625 16 2.0625ZM6.89113 3.43337L5.82925 3.96438C6.76156 5.34856 7.84256 6.90269 8.93925 8.27356C10.1709 9.81319 11.4361 11.0891 12.2516 11.4968L12.5625 11.6523V14.1197C14.2581 14.3452 15.4698 14.4311 16.8047 14.3753C16.7634 14.3447 16.7224 14.3141 16.6828 14.2828C16.3756 14.0403 16.1091 13.7699 15.9016 13.4793C15.5347 13.4426 15.2405 13.2059 15.0646 12.9387C14.8731 12.6481 14.7789 12.2986 14.7789 11.9223C14.7789 11.5461 14.8731 11.1966 15.0646 10.9058C15.2561 10.6152 15.5873 10.3598 16 10.3598C16.4127 10.3598 16.7439 10.6151 16.9354 10.9058C17.1269 11.1966 17.2211 11.5461 17.2211 11.9223C17.2211 12.2986 17.1269 12.6481 16.9354 12.9388C16.9317 12.9446 16.9273 12.9503 16.9234 12.9561C17.0434 13.1034 17.1944 13.2534 17.3799 13.3998C17.7726 13.7099 18.3 13.9911 18.9268 14.1911C19.0924 14.1708 19.2621 14.1492 19.4375 14.1261V11.6523L19.7484 11.4968C20.5639 11.089 21.8291 9.81306 23.0608 8.2735C24.1574 6.90263 25.2384 5.3485 26.1708 3.96431L25.1089 3.43331C22.1916 6.33887 19.237 9.0625 16 9.0625C12.763 9.0625 9.80831 6.33887 6.89113 3.43337ZM8.7095 14.679L9.469 18.4767C15.7851 19.0618 16.2149 19.0618 22.531 18.4767L23.2902 14.6808C16.4102 15.7713 15.5889 15.7535 8.70956 14.6789L8.7095 14.679ZM11.1622 19.7624L11.9966 26.4374H20.0035L20.8377 19.7624C16.6027 20.1394 15.3973 20.1394 11.1622 19.7624ZM8.5625 27.5625V28.8125H23.4375V27.5625H8.5625ZM1 29.875V31H31V29.875H1Z" fill="white"/>
</svg>
