<svg width="32" height="32" viewBox="0 0 32 32" fill="none" xmlns="http://www.w3.org/2000/svg">
<path d="M16.0552 1.85627L15.0694 3.22214L13.6319 2.34339L13.2442 3.98239L11.5799 3.72033L11.8491 5.38308L10.211 5.77789L11.0963 7.21102L9.73418 8.20227L11.1006 9.18752L10.2216 10.6245L11.8612 11.012L11.5991 12.676L13.2624 12.4068L13.6571 14.0443L15.0907 13.1593L16.0822 14.521L17.068 13.155L18.5055 14.0338L18.7732 12.9019L18.8932 12.3946L20.5577 12.6568L20.2884 10.9939L21.9265 10.5993L21.0411 9.16627L22.4034 8.17502L21.037 7.18958L21.916 5.75258L20.2764 5.36508L20.5382 3.70108L18.8751 3.97027L18.4802 2.33277L17.0467 3.21777L16.0551 1.85602L16.0552 1.85627ZM16.0394 5.08627C16.8625 5.08627 17.6519 5.41314 18.234 5.99497C18.816 6.5768 19.143 7.36593 19.143 8.18877C19.143 9.01157 18.816 9.80066 18.234 10.3825C17.6519 10.9643 16.8626 11.2911 16.0395 11.2911C15.2164 11.2911 14.4271 10.9642 13.8451 10.3824C13.2631 9.80064 12.9361 9.01156 12.9361 8.18877C12.9361 7.36594 13.263 6.57682 13.845 5.99499C14.4271 5.41316 15.2164 5.08628 16.0396 5.08627H16.0394ZM19.7485 13.668L19.2434 15.8033L17.3709 14.6586L16.7617 15.5026C17.4951 20.6301 17.8929 25.7423 20.1776 30.9401L21.2121 26.8035C21.869 27.667 22.9321 28.432 24.3156 28.8718C22.3734 24.0245 21.6425 18.9351 20.896 13.8486L19.7485 13.668ZM12.4129 13.6838L11.1779 13.8838C10.4331 18.9585 9.70099 24.0356 7.76337 28.8718C9.14687 28.432 10.2101 27.667 10.867 26.8035L11.9015 30.9401C14.2011 25.7083 14.5893 20.563 15.3321 15.4018L14.7949 14.6643L12.9274 15.8169L12.4129 13.684L12.4129 13.6838Z" fill="white"/>
</svg>
