<svg width="32" height="32" viewBox="0 0 32 32" fill="none" xmlns="http://www.w3.org/2000/svg">
<path d="M16.1289 1.21875C8.78828 1.21875 2.67966 6.54138 1.45116 13.5331L1.42366 13.5547L1.44328 13.5801C1.35203 14.1089 1.28766 14.6473 1.25378 15.1934C1.54941 14.9434 1.84653 14.7016 2.14441 14.4669L2.14835 14.4706C11.3033 7.22687 21.255 7.46625 30.1073 14.4706L30.1092 14.4688C30.4084 14.7037 30.7075 14.9447 31.0038 15.1953C30.97 14.6478 30.9058 14.1082 30.8143 13.5781L30.832 13.5547C30.8235 13.5481 30.815 13.5418 30.8065 13.5351C29.5787 6.5425 23.4702 1.21875 16.1289 1.21875ZM16.1289 2.38675C22.4565 2.38675 27.7753 6.65406 29.373 12.4707C25.1942 9.55006 20.7345 8.04131 16.244 8.01381C11.7384 7.98606 7.20297 9.44837 2.88653 12.4669C4.48591 6.65244 9.80278 2.38681 16.1288 2.38681L16.1289 2.38675ZM16.2441 10.3184C15.0111 10.3097 13.7748 10.429 12.5391 10.6777C10.7722 11.8426 9.60935 13.8453 9.60935 16.125C9.60935 18.4181 10.7861 20.4286 12.5703 21.5899C13.7845 21.8239 15.0018 21.938 16.2168 21.9316C17.378 21.9255 18.5385 21.8096 19.6933 21.586C21.4728 20.4239 22.6464 18.4149 22.6464 16.125C22.6464 13.8477 21.4856 11.8471 19.7227 10.6816C18.5662 10.4474 17.4059 10.3265 16.244 10.3184H16.2441ZM10.125 11.3321C7.3526 12.2746 4.5956 13.8805 1.89841 16.1836C4.56928 18.458 7.34735 20.0433 10.1622 20.9649C9.08716 19.6427 8.44141 17.9578 8.44141 16.125C8.44141 14.3136 9.07253 12.6475 10.125 11.332V11.3321ZM22.1367 11.3379C23.186 12.6525 23.8143 14.3162 23.8143 16.125C23.8143 17.956 23.1703 19.6394 22.0977 20.9609C24.9323 20.0322 27.7105 18.4386 30.3574 16.1856C27.6905 13.9089 24.9338 12.2907 22.1366 11.3378L22.1367 11.3379ZM16.1289 12.4238C16.5191 12.4238 16.8948 12.4836 17.248 12.5957C16.6793 12.8856 16.289 13.4763 16.289 14.1582C16.289 15.1264 17.0747 15.9122 18.0429 15.9122C18.7404 15.9122 19.3426 15.5038 19.6249 14.9141C19.7564 15.2939 19.828 15.7007 19.828 16.1251C19.828 18.1682 18.1719 19.8243 16.1288 19.8243C14.0857 19.8243 12.4297 18.1681 12.4297 16.125C12.4297 14.0819 14.0858 12.4237 16.1289 12.4237V12.4238ZM30.9961 17.1798C30.5709 17.5379 30.1417 17.8788 29.709 18.2051C29.7076 18.2143 29.7065 18.2234 29.705 18.2326C25.3947 21.685 20.8278 23.4431 16.2383 23.4727C11.6467 23.5025 7.00847 21.8048 2.55272 18.2365C2.55135 18.2274 2.55022 18.2183 2.54885 18.2091C2.11672 17.883 1.6876 17.5406 1.26178 17.1817C1.8046 24.9144 8.25953 31.0294 16.1289 31.0294C23.9989 31.0294 30.4542 24.9134 30.9961 17.1797V17.1798ZM2.94722 20.006C7.24035 23.1314 11.7544 24.6698 16.246 24.6407C20.7223 24.6117 25.1557 23.0297 29.3105 20.0059C27.6385 25.7066 22.3743 29.8614 16.1288 29.8614C9.88378 29.8614 4.61978 25.7057 2.94722 20.006Z" fill="white"/>
</svg>
