<svg width="32" height="32" viewBox="0 0 32 32" fill="none" xmlns="http://www.w3.org/2000/svg">
<path d="M15.7169 1.17776C13.0854 1.17776 10.6655 2.77164 8.87113 5.43751C7.07669 8.10339 5.9375 11.8323 5.9375 15.9629C5.9375 20.0935 7.07669 23.8244 8.87113 26.4903C10.6655 29.1561 13.0855 30.707 15.7168 30.707C18.3481 30.707 20.7701 29.1561 22.5644 26.4903C24.3589 23.8244 25.4982 20.0936 25.4982 15.9629C25.4982 11.8323 24.3589 8.10339 22.5644 5.43751C20.7701 2.77164 18.3481 1.17776 15.7169 1.17776ZM12.4081 11.291C12.4648 11.2902 12.5214 11.2899 12.5781 11.291C13.1834 11.3034 13.7956 11.4503 14.4024 11.6934L13.9649 12.752C12.0082 11.968 10.1778 12.6195 8.96488 14.6857L7.94144 14.0665C8.98769 12.284 10.6542 11.3161 12.4082 11.2911L12.4081 11.291ZM18.9531 11.3633C20.7071 11.3884 22.3716 12.3561 23.418 14.1387L22.3965 14.7226C21.1836 12.6563 19.3531 12.0402 17.3965 12.8241L16.959 11.7285C17.5657 11.4854 18.1779 11.3776 18.7832 11.3652C18.8401 11.364 18.8966 11.3625 18.9532 11.3633L18.9531 11.3633ZM15.7617 15.3438C19.0851 15.3438 21.7793 18.4767 21.7793 22.3419C21.7793 26.2068 19.0851 29.3419 15.7616 29.3419C12.4383 29.3419 9.74413 26.2069 9.74413 22.3419C9.74413 18.4767 12.4383 15.3438 15.7617 15.3438ZM14.5411 18.7285L14.6661 19.6094L15.3554 24.5331C14.9679 24.3804 14.5251 24.291 14.0644 24.291C12.7339 24.291 11.7594 25.0266 11.8868 25.9335C12.0143 26.8406 13.1968 27.5741 14.5274 27.5741C15.858 27.5741 16.8326 26.8406 16.7051 25.9335C16.7051 25.9329 16.7053 25.9323 16.7051 25.9316L16.7306 25.9278L16.1525 21.7481L18.6447 22.58L19.4005 22.8575V20.0371L18.9708 19.9355L15.3967 18.9549L14.5412 18.7284L14.5411 18.7285Z" fill="white"/>
</svg>
