<svg width="32" height="32" viewBox="0 0 32 32" fill="none" xmlns="http://www.w3.org/2000/svg">
<path d="M20.3372 2.51813L10.3337 9.31357C8.62656 10.1877 4.1975 10.2979 1.17188 10.1529V18.6579C2.71687 17.9789 4.41094 17.3978 6.08462 16.9387L4.08669 13.3456L3.85356 12.9264L4.2195 12.6163C4.90656 12.0338 5.70512 11.6255 6.582 11.5802C7.32994 11.5416 8.10513 11.7874 8.83263 12.3262C9.40738 11.9301 10.0162 11.6624 10.6699 11.6337C11.3152 11.6052 11.9615 11.8368 12.5599 12.2885C13.3839 11.6299 14.2858 11.4989 15.0551 11.6578C15.9538 11.8434 16.7159 12.2934 17.3879 12.5046L18.0629 12.7168L15.4216 17.6081C19.0496 19.2842 21.941 22.1494 21.2873 27.7219L24.569 21.4625L17.8559 16.3097C21.0719 15.1319 27.2479 18.0208 26.9996 23.6006L28.5113 17.0914L19.3494 13.0731C22.5686 11.2009 28.2239 11.5998 30.6069 17.7119L29.7919 10.3189C24.9277 10.4627 19.4198 9.95413 16.8342 8.96369C16.1936 9.36369 15.568 9.85932 14.8535 10.3222L14.2184 9.34188C15.0531 8.80125 15.8996 8.07213 16.9221 7.56982C18.8813 6.38244 20.7124 5.68838 23.7656 7.87744L20.3371 2.51807L20.3372 2.51813ZM14.3689 12.7438C13.9356 12.7341 13.5347 12.8953 13.004 13.4613L12.5945 13.8981L12.1681 13.4778C11.6222 12.9399 11.1745 12.7806 10.7212 12.8006C10.2681 12.8204 9.75019 13.0546 9.18056 13.5157L8.79206 13.8303L8.42131 13.4948C7.76556 12.9016 7.19194 12.7183 6.64225 12.7467C6.21806 12.7686 5.78412 12.934 5.35444 13.2223L8.36287 18.6328C9.50788 19.3485 11.8398 19.6198 13.4513 18.7986L16.3779 13.3788C15.8004 13.1468 15.2799 12.8968 14.819 12.8016C14.6613 12.7691 14.5134 12.7469 14.3689 12.7436V12.7438ZM7.79725 19.6665C6.45381 20.5962 5.374 22.2141 4.961 24.5846C4.5645 26.8596 5.1915 28.4165 6.30613 29.4726C7.42081 30.5287 9.0855 31.0679 10.7721 31.0459C12.4587 31.0241 14.1413 30.4403 15.279 29.3659C16.4169 28.2916 17.0607 26.7532 16.6979 24.5805C16.3196 22.3154 15.3298 20.7383 14.0781 19.7926C12.0293 20.9013 9.41775 20.6594 7.79725 19.6666V19.6665Z" fill="white"/>
</svg>
