<svg width="32" height="32" viewBox="0 0 32 32" fill="none" xmlns="http://www.w3.org/2000/svg">
<path d="M10.8652 0.972717V0.974592L14.129 12.9844C14.5687 12.7869 15.051 12.6075 15.5469 12.459C16.1027 12.2926 16.6722 12.1663 17.2169 12.1015L14.1875 0.972842L10.8652 0.972717ZM25.8671 12.4707C25.0518 13.4338 22.8134 14.4548 20.125 15.336C20.2275 16.3622 20.2942 17.5282 20.295 18.67C20.2956 19.8362 20.2259 20.9572 20.0294 21.8672C19.931 22.3222 19.8037 22.7266 19.6075 23.0722C19.411 23.4178 19.119 23.7341 18.6972 23.8457C18.2754 23.9573 17.865 23.8285 17.5215 23.627C17.1779 23.4255 16.8621 23.1401 16.5469 22.7951C15.9164 22.1048 15.289 21.1665 14.6992 20.1563C14.1069 19.142 13.5595 18.0707 13.123 17.1133C10.2773 17.6402 7.79849 17.844 6.74017 17.5079C8.46455 23.861 11.2172 28.4915 14.2597 31.0138H24.2969C27.2498 27.7271 28.1845 21.0091 25.8672 12.4707L25.8671 12.4707ZM17.8769 13.2247C17.8304 13.2252 17.7816 13.2261 17.7325 13.2286C17.1892 13.2561 16.525 13.3853 15.8809 13.5782C15.2367 13.7711 14.6094 14.0272 14.127 14.2853C13.7986 14.4609 13.5853 14.6304 13.4454 14.7559C13.7712 15.7488 14.6727 17.7935 15.7092 19.5684C16.2744 20.5367 16.8779 21.423 17.4103 22.0059C17.6764 22.2974 17.9262 22.5106 18.1114 22.6192C18.2967 22.728 18.3806 22.7217 18.3986 22.7169C18.4166 22.7121 18.4874 22.6782 18.592 22.4942C18.6964 22.3102 18.806 22.0043 18.8889 21.621C19.0544 20.8547 19.1278 19.7873 19.127 18.67C19.1257 16.5826 18.8601 14.313 18.6369 13.3222C18.4662 13.2663 18.2035 13.2216 17.877 13.2246L17.8769 13.2247Z" fill="white"/>
</svg>
