<svg width="32" height="32" viewBox="0 0 32 32" fill="none" xmlns="http://www.w3.org/2000/svg">
<path d="M19.9756 1.29086C20.7972 3.36049 20.7971 3.36055 19.6344 5.25961C21.704 4.43805 21.7041 4.43799 23.6031 5.60068C22.7816 3.53105 22.7815 3.53111 23.9442 1.63205C21.8746 2.45368 21.8747 2.45361 19.9756 1.29086ZM7.064 2.3763C6.326 3.6913 6.326 3.6913 4.83125 3.88986C6.14625 4.62793 6.14625 4.62786 6.34481 6.12268C7.08281 4.80768 7.08281 4.80768 8.57756 4.60911C7.26256 3.87111 7.26256 3.87111 7.064 2.3763ZM11.8484 5.8878C11.7889 9.04955 11.789 9.04955 9.22394 10.899C12.3856 10.9584 12.3857 10.9584 14.2352 13.5234C14.2946 10.3617 14.2946 10.3617 16.8596 8.51218C13.6978 8.4528 13.6978 8.4528 11.8483 5.8878H11.8484ZM23.7969 9.38061C23.7941 10.8886 23.7939 10.8884 22.5859 11.7909C24.0938 11.7938 24.0938 11.7937 24.9963 13.0018C24.9992 11.4939 24.9991 11.494 26.2072 10.5916C24.6993 10.5886 24.6994 10.5887 23.7969 9.38061ZM12.2916 14.6231C12.2171 14.6246 12.1441 14.6275 12.0733 14.6315C10.9114 14.698 9.45656 15.1575 7.233 16.0412L4.75075 27.0989C9.65619 25.803 13.0614 25.7296 15.4376 26.8104V15.4819C14.3079 14.9311 13.4508 14.6444 12.5184 14.6233C12.4428 14.6218 12.3672 14.6217 12.2916 14.6232L12.2916 14.6231ZM19.9594 15.3369C19.7772 15.3352 19.5963 15.3376 19.4273 15.343C18.6267 15.3691 17.6999 15.4814 16.5623 15.6256V26.6966C19.2851 26.2075 23.2404 26.4341 27.2651 27.1694L24.7788 16.0946C22.5348 15.5715 21.242 15.3502 19.9594 15.3369V15.3369ZM20.1025 16.3962C21.2831 16.409 22.4057 16.5692 23.4592 16.71L23.7365 17.7427C22.2502 17.5083 19.6136 17.4361 17.9573 17.6814L17.9176 16.5686C18.665 16.434 19.3941 16.3886 20.1025 16.3962ZM4.44731 16.6874L3.78375 19.5626H5.28963L5.935 16.6874H4.44731ZM26.0649 16.6874L28.5487 27.7518L28.6887 28.3751L30.1006 28.3656L27.5472 16.6874H26.0649ZM21.1363 20.3011C22.1984 20.3027 23.2407 20.3505 24.2079 20.4401L24.4282 21.5134C22.3879 21.3209 19.8919 21.3329 17.991 21.5134L17.9467 20.4401C18.9925 20.3442 20.0742 20.2996 21.1363 20.3011ZM3.52425 20.6874L3.0915 22.5626H4.61613L5.03706 20.6874H3.52425ZM20.6754 22.3901C20.9664 22.3914 21.2683 22.3954 21.5951 22.4028L21.7548 23.4964C20.5067 23.467 18.8101 23.5314 18.0218 23.5621L17.9781 22.438C19.0282 22.4072 19.8024 22.3862 20.6754 22.3901ZM23.2676 22.4181C23.7844 22.4207 24.3112 22.4389 24.7752 22.4224L24.9364 23.5311C24.3956 23.5116 23.3821 23.4792 22.9324 23.4997L22.757 22.4226C22.9272 22.4184 23.0974 22.4169 23.2676 22.4181ZM2.832 23.6874L1.70794 28.5579L3.27262 28.5472L4.36356 23.6874H2.832ZM21.7798 24.4279C23.0053 24.4272 24.196 24.4762 25.3078 24.5886L25.4951 25.8878C23.351 25.6226 20.1354 25.4067 18.0513 25.6851L18.0426 24.5649C19.2938 24.4787 20.5542 24.4285 21.7798 24.4279ZM11.3669 27.181C9.48487 27.1866 7.12212 27.5716 4.15387 28.416L3.70263 28.5443L15.4376 28.4649V28.0682C14.4228 27.4929 13.0988 27.1759 11.3669 27.181H11.3669ZM19.7675 27.5669C18.5406 27.5711 17.448 27.6568 16.5623 27.8282V28.4572L27.6619 28.3821C24.8918 27.8424 22.0909 27.5589 19.7676 27.5669H19.7675ZM1.625 29.6875V30.8125H30.375V29.6875H1.625Z" fill="white"/>
</svg>
