<svg width="32" height="32" viewBox="0 0 32 32" fill="none" xmlns="http://www.w3.org/2000/svg">
<path d="M10.1544 1.09253C12.2144 6.02728 12.8613 13.148 12.3534 18.9136C12.3323 19.0833 12.3094 19.2528 12.2855 19.4219C12.279 19.4038 12.2729 19.3855 12.2661 19.3675H12.266C11.5954 23.2717 8.78276 27.4971 5.51332 30.8292H8.98094L8.98219 30.8273H10.3125L10.3106 30.8292H13.7783C16.2487 27.2612 18.1941 22.3627 17.0635 19.3676H17.0634C16.7728 21.0595 16.0794 22.8115 15.1215 24.5251C16.3171 18.9283 15.8099 12.7882 13.5796 7.43297C12.7103 4.77628 11.5586 2.45797 10.1543 1.09259L10.1544 1.09253ZM24.8038 6.7094L22.3671 7.36222L22.6693 8.49053L23.4587 8.27897L25.3913 15.492L24.6021 15.7035L24.9045 16.8318L27.3411 16.1789L27.0386 15.0508L26.1364 15.2925C26.602 13.892 26.6535 12.5457 26.3228 11.3113C26.0034 10.1192 25.3226 9.01528 24.2826 8.0584L25.1059 7.83765L24.8037 6.70953L24.8038 6.7094ZM1.05963 8.44228L3.52413 12.6643L9.53757 16.1012L9.94719 13.4968L10.9522 13.9476L11.2836 12.0848L5.71426 8.86128L1.05963 8.44228ZM30.7748 9.72666L27.3416 10.6413C27.3811 10.7629 27.4181 10.8853 27.4513 11.009C27.5519 11.3844 27.6218 11.7675 27.6623 12.156L30.7748 11.3268V9.72653V9.72666ZM22.8168 10.396L16.275 12.1194C16.5814 13.5562 16.7826 15.0158 16.8779 16.4803L23.9481 14.6184L22.8168 10.396H22.8168ZM10.8743 16.8254L7.99594 19.576L9.91501 20.3435L10.8743 16.8254ZM17.4866 17.1042L18.475 19.3582L19.4525 19.3803L19.4543 18.3942L17.4866 17.1042L17.4866 17.1042ZM20.4585 19.5502L22.1835 22.0627L24.0189 21.3893L22.511 20.2441L20.4585 19.5502V19.5502ZM7.35876 21.096L4.31982 21.3332L3.98544 23.2595L5.73107 22.5262L7.35876 21.096ZM19.7903 21.163L19.8031 23.3621L21.1395 24.3493L21.9187 23.5477L19.7903 21.163ZM10.0201 21.5966L7.34701 23.3491L7.34938 24.6888L8.67751 24.6583L10.0201 21.5966ZM5.50463 25.4757L4.01376 26.4863L4.38688 27.7612L6.06532 27.4374L5.50469 25.4755L5.50463 25.4757Z" fill="white"/>
</svg>
