<svg width="32" height="32" viewBox="0 0 32 32" fill="none" xmlns="http://www.w3.org/2000/svg">
<path d="M15.7547 1.27039C12.9796 1.27039 10.4376 2.85864 8.55324 5.52689C7.17062 7.48451 6.16305 10.0158 5.72399 12.8578C6.42824 12.6449 7.12399 12.5318 7.79749 12.516C8.62887 12.4962 9.42643 12.6241 10.1644 12.8925H10.2044C10.236 12.9089 10.2662 12.926 10.2975 12.9427C11.1855 13.2897 11.9831 13.844 12.6441 14.594C14.3686 16.5508 15.1586 19.7314 14.5817 23.8337C15.3115 23.9651 16.1938 23.9587 16.8977 23.8328C16.321 19.7311 17.1112 16.5507 18.8356 14.594C20.5201 12.6823 23.0924 12.0414 25.7871 12.8671C25.3488 10.0213 24.3405 7.48664 22.9564 5.52682C21.0719 2.85857 18.5299 1.27032 15.7547 1.27032L15.7547 1.27039ZM15.5999 6.18851C15.6791 6.18745 15.7584 6.18739 15.8376 6.18851C18.3745 6.22276 20.8773 7.33614 22.982 9.36989L23.4184 9.79164L22.9803 10.2116C20.6494 12.4456 18.1025 13.5639 15.5947 13.54C13.0867 13.516 10.6639 12.3478 8.58824 10.1953L8.19118 9.78351L8.59455 9.37801C10.6864 7.27551 13.1421 6.22101 15.5998 6.18839L15.5999 6.18851ZM15.7081 7.41007C14.4097 7.41007 13.3612 8.46832 13.3612 9.79914C13.3612 11.1299 14.4097 12.1882 15.7081 12.1882C17.0066 12.1882 18.055 11.1299 18.055 9.79914C18.055 8.46826 17.0066 7.41014 15.7081 7.41014V7.41007ZM18.6966 7.9332C19.0299 8.47695 19.2229 9.11651 19.2229 9.79914C19.2229 10.5201 19.0077 11.1931 18.6393 11.7558C19.6621 11.3297 20.6876 10.6786 21.6989 9.78957C20.7483 8.96126 19.7366 8.34057 18.6966 7.9332H18.6966ZM12.7016 7.96176C11.7237 8.3647 10.7685 8.97258 9.86012 9.79826C10.797 10.6839 11.7779 11.3408 12.7855 11.7693C12.4117 11.2039 12.1932 10.5258 12.1932 9.7992C12.1932 9.12858 12.3791 8.4992 12.7016 7.96182L12.7016 7.96176ZM15.7132 8.76226C16.2895 8.76226 16.7567 9.2362 16.7567 9.82076C16.7567 10.4054 16.2895 10.8791 15.7132 10.8791C15.137 10.8791 14.6699 10.4054 14.6699 9.82082C14.6699 9.23632 15.1369 8.76239 15.7132 8.76239L15.7132 8.76226ZM24.3842 13.7343C24.2736 15.2045 23.2236 16.4644 21.7317 17.3391C20.7302 17.9263 19.5117 18.3608 18.1601 18.6002C17.8132 20.1255 17.7646 21.9951 18.1298 24.1836L18.2138 24.6868L17.7263 24.8376C16.5549 25.2001 14.9982 25.2227 13.7532 24.8376L13.2657 24.6868L13.3497 24.1836C13.7141 22.0003 13.6666 20.1347 13.3219 18.6114C11.9438 18.3748 10.7018 17.9359 9.68399 17.3391C8.19562 16.4665 7.14693 15.2104 7.03212 13.7445C6.55918 13.8221 6.06974 13.9541 5.56599 14.1443C5.50912 14.7721 5.47955 15.4125 5.47955 16.0626C5.47955 20.1971 6.66893 23.9301 8.5533 26.5983C8.80918 26.9606 9.07768 27.3023 9.35674 27.6236C9.76218 27.3003 10.2802 27.0448 10.8937 26.8304C12.1641 26.3867 13.8485 26.1287 15.7079 26.1287C17.5672 26.1287 19.2516 26.3866 20.5221 26.8304C21.1573 27.0523 21.6912 27.3177 22.1027 27.6573C22.1067 27.6607 22.1105 27.6642 22.1145 27.6675C22.4074 27.3336 22.6889 26.9773 22.9564 26.5983C24.8407 23.9301 26.0301 20.1971 26.0301 16.0626C26.0301 15.4026 25.9995 14.7529 25.9409 14.1161L25.9282 14.1497C25.3968 13.948 24.8814 13.811 24.3842 13.7344V13.7343ZM15.7079 27.2965C13.9589 27.2965 12.3749 27.5501 11.2789 27.933C10.8067 28.098 10.4274 28.2893 10.1711 28.4711C11.7927 29.9919 13.7103 30.8546 15.7547 30.8546C17.7816 30.8546 19.6839 30.0066 21.2967 28.5101C21.0413 28.3166 20.6431 28.1098 20.1369 27.933C19.0411 27.5501 17.4569 27.2965 15.7079 27.2965Z" fill="white"/>
</svg>
