<svg width="32" height="32" viewBox="0 0 32 32" fill="none" xmlns="http://www.w3.org/2000/svg">
<path d="M7.58786 1.14459C3.96411 2.17972 1.45911 4.3704 1.45898 6.91209C1.4588 9.44447 3.9468 11.6381 7.5488 12.6777C5.44548 11.3024 4.09755 9.22622 4.09767 6.91209C4.09767 4.58478 5.46323 2.51978 7.58786 1.14459ZM24.871 1.14459C26.9957 2.51978 28.3613 4.58478 28.3613 6.91209C28.3615 9.22622 27.0136 11.3024 24.9102 12.6777C28.5122 11.6381 31.0002 9.44447 31 6.91209C30.9999 4.3704 28.4949 2.17972 24.871 1.14459ZM10.205 2.60353C7.49855 3.37653 5.62905 5.01384 5.62886 6.91216C5.62873 8.80341 7.48555 10.4423 10.1757 11.2188C8.6048 10.1917 7.59761 8.64034 7.59761 6.91216C7.59761 5.17384 8.61811 3.63072 10.2051 2.60353H10.205ZM22.2539 2.60353C23.8407 3.63072 24.8614 5.17384 24.8614 6.91216C24.8614 8.64028 23.8542 10.1917 22.2832 11.2188C24.9734 10.4423 26.8302 8.80347 26.8301 6.91216C26.8299 5.01384 24.9604 3.37653 22.2539 2.60353ZM15.9395 3.02934C14.4734 3.21853 13.1757 4.90597 13.1757 7.07028C13.1757 8.26366 13.5904 9.32072 14.2031 10.0547L14.8419 10.8203L13.8612 11.0039C13.0591 11.1539 12.4686 11.5783 11.9706 12.2578C11.4728 12.9373 11.0956 13.8767 10.832 14.955C10.349 16.9313 10.2469 19.3407 10.2324 21.4513H12.8359L12.8749 21.9922L13.539 30.8282H19.1855L19.7714 21.9961L19.8085 21.4512H22.285C22.284 19.3167 22.2617 16.8742 21.8241 14.8828C21.5855 13.7972 21.2234 12.8583 20.7186 12.1855C20.2139 11.5127 19.5942 11.0912 18.6971 10.953L17.6971 10.7987L18.3299 10.0097C18.9162 9.27953 19.3105 8.23465 19.3105 7.07028C19.3105 4.76278 17.8559 3.03503 16.2421 3.03503C16.0671 3.03503 15.9605 3.02647 15.9394 3.02922L15.9395 3.02934ZM12.7246 3.78903C10.7634 4.34928 9.40817 5.53653 9.40817 6.91216C9.40817 8.28259 10.7538 9.47059 12.7032 10.0332C11.5649 9.2889 10.836 8.16453 10.836 6.91216C10.8362 5.65259 11.5747 4.5334 12.7247 3.78903H12.7246ZM19.7344 3.78903C20.8842 4.5334 21.6229 5.65253 21.6231 6.91216C21.6231 8.16447 20.8941 9.28884 19.7559 10.0332C21.7052 9.47065 23.0509 8.28266 23.0509 6.91216C23.0507 5.53653 21.6955 4.34934 19.7344 3.78903Z" fill="white"/>
</svg>
