<svg width="32" height="32" viewBox="0 0 32 32" fill="none" xmlns="http://www.w3.org/2000/svg">
<path d="M4.28726 1.76138C-1.13568 4.92826 1.09807 10.3166 11.9966 10.3166L12.1738 5.91457C7.73195 6.78957 1.60476 6.8877 4.28732 1.76145L4.28726 1.76138ZM27.9407 1.76138C30.6232 6.88776 24.4961 6.78951 20.0541 5.91451L20.2314 10.3166C31.13 10.3166 33.3637 4.92832 27.9408 1.76138H27.9407ZM10.8879 13.798C10.6505 13.8045 10.403 13.8471 10.1494 13.9284C10.0314 15.7923 10.8763 17.0727 13.1816 16.4209C13.1528 14.7797 12.1695 13.7628 10.8879 13.798ZM21.3387 13.798C20.057 13.7628 19.0737 14.7797 19.0449 16.4209C21.3503 17.0728 22.1952 15.7923 22.0773 13.9284C21.8237 13.8471 21.5761 13.8045 21.3387 13.798ZM18.0185 23.9668L17.3439 24.9209C18.3149 25.607 18.5433 26.9331 17.8571 27.904C17.171 28.875 15.8458 29.1025 14.875 28.4164C13.9041 27.7303 13.6756 26.4044 14.3619 25.4334C14.4888 25.2538 14.6421 25.0947 14.8174 24.962L14.1134 24.0311C13.8422 24.2363 13.6039 24.4813 13.4077 24.7589C12.3574 26.2454 12.7141 28.3203 14.2005 29.3707C15.687 30.4211 17.7603 30.0643 18.8106 28.5778C19.861 27.0914 19.505 25.0174 18.0186 23.967L18.0185 23.9668Z" fill="white"/>
</svg>
