<svg width="32" height="32" viewBox="0 0 32 32" fill="none" xmlns="http://www.w3.org/2000/svg">
<path d="M10.0331 1.3066C8.65345 1.31953 7.53482 1.87772 6.64451 2.79297C5.5942 3.8726 4.89376 5.47497 4.67976 7.22647C4.25182 10.7296 5.71413 14.7235 9.81063 16.3905L9.37113 17.4726C5.36313 15.8416 3.54145 12.1753 3.44726 8.6601C2.36226 9.33922 1.72176 10.3507 1.42582 11.5624C1.06782 13.0279 1.25538 14.7837 1.91995 16.4277C3.24895 19.7158 6.38057 22.4812 10.5722 21.9023L10.7324 23.0604C7.6827 23.4817 5.09595 22.3369 3.2382 20.496C2.7287 21.5095 2.7692 22.5125 3.19713 23.5155C3.72663 24.7564 4.91576 25.9688 6.50182 26.8652C9.44463 28.5283 13.6768 29.0873 17.3262 27.1835C16.9868 25.8717 17.1604 24.3664 18.0351 22.8515C19.4544 20.3932 21.8338 19.7371 23.5585 20.4335C24.4209 20.7817 25.126 21.4682 25.4257 22.3808C25.7254 23.2933 25.6029 24.3997 24.9648 25.5253C24.2273 26.8259 22.8308 27.2676 21.7616 26.914C21.2271 26.7372 20.7479 26.3242 20.5819 25.7343C20.4161 25.1443 20.5731 24.4614 21.0234 23.7772L21.998 24.4198C21.6706 24.917 21.6543 25.2373 21.7049 25.4178C21.7557 25.5983 21.8824 25.7237 22.1268 25.8045C22.6156 25.9662 23.4694 25.795 23.9491 24.949C24.4609 24.0465 24.5004 23.3126 24.3143 22.7459C24.1283 22.1793 23.6989 21.7488 23.1211 21.5155C21.9653 21.0488 20.2373 21.3734 19.0468 23.4355C18.1703 24.9536 18.1485 26.2715 18.6268 27.4002L18.8027 27.6737C18.7904 27.6818 18.7779 27.6893 18.7656 27.6972C18.7816 27.7282 18.7976 27.7602 18.8143 27.7909C18.9359 28.0137 19.0779 28.2288 19.2402 28.4334C19.2464 28.4415 19.2533 28.449 19.2597 28.457C19.2844 28.4876 19.3103 28.5185 19.3359 28.5487C20.0552 29.4023 21.1083 30.0723 22.2929 30.4414C23.8092 30.9137 25.5177 30.888 26.9706 30.207C28.4236 29.526 29.6541 28.2088 30.2638 25.9336C30.4714 25.1582 30.5813 24.4476 30.6075 23.789C30.6081 23.7629 30.6089 23.737 30.6094 23.7109C30.6148 23.3922 30.6039 23.0705 30.5742 22.748C30.5719 22.7226 30.5689 22.6972 30.5664 22.6718C30.5644 22.6549 30.5626 22.6378 30.5606 22.621C30.3546 21.0091 29.5716 19.736 28.414 18.5937C26.5618 16.7662 23.6829 15.3663 20.7421 13.9608C17.8014 12.5554 14.7976 11.1421 12.6874 9.10735C10.7073 7.19778 9.56707 4.65828 10.1679 1.30647C10.1229 1.30585 10.0776 1.3061 10.0331 1.30647V1.3066Z" fill="white"/>
</svg>
