<svg width="32" height="32" viewBox="0 0 32 32" fill="none" xmlns="http://www.w3.org/2000/svg">
<path d="M15.4375 1.16599C10.3772 1.16599 6.25781 5.22973 6.25781 10.2675C6.25781 13.1194 7.24269 14.455 8.33988 16.1954C9.0715 17.356 9.82531 18.6897 10.248 20.6055H20.5664C20.9869 18.6439 21.7483 17.2855 22.4863 16.1134C23.5851 14.3684 24.5684 13.0564 24.5684 10.2676C24.5684 5.22636 20.498 1.16611 15.4376 1.16611L15.4375 1.16599ZM9.20125 9.16011L10.6523 10.4375L13.125 12.6133L15.0743 10.4805L15.498 10.0156L15.9297 10.4746L17.8516 12.5196L20.3497 10.4277L21.7676 9.24023L21.2891 11.0274L19.0469 19.3925L17.9179 19.0899L19.6817 12.5117L18.1797 13.7695L17.7559 14.123L17.3789 13.7205L15.5098 11.7343L13.5996 13.8242L13.2129 14.2479L12.7832 13.869L11.3301 12.5917L13.0763 19.1054L11.9473 19.4061L9.70125 11.0272L9.20125 9.15999V9.16011ZM10.6133 21.7734V24.3437L19.6875 21.7734H10.6132H10.6133ZM20.2129 22.8399L10.6132 25.5605V27.4004L20.2129 24.6816V22.8397V22.8399ZM20.2129 25.8945L12.7481 28.0097H20.2129V25.8945ZM11.9277 29.1777V30.461H19.0079V29.1779H11.9279L11.9277 29.1777Z" fill="white"/>
</svg>
