<svg width="32" height="32" viewBox="0 0 32 32" fill="none" xmlns="http://www.w3.org/2000/svg">
<path d="M10.3691 1.168C0.974539 3.705 -2.63671 12.4094 5.79498 15.3359H5.72654C5.76623 15.3413 5.80616 15.3476 5.84566 15.3534C6.40723 15.5458 7.02254 15.7118 7.69141 15.8497C10.835 17.0844 13.1087 20.0763 13.2931 23C11.1985 24.4435 9.57623 26.9278 9.57623 26.9278L11.2187 29.3456L8.64248 30.8125H13.7656C11.239 28.2853 13.0306 25.4434 16.0234 25.4434C19.0572 25.4434 20.645 28.4504 18.2832 30.8125H23.3535L20.8301 29.3456L22.4728 26.9278C22.4728 26.9278 20.8243 24.4028 18.7052 22.9649C18.9054 20.0523 21.1739 17.0794 24.3048 15.8496C24.974 15.7117 25.589 15.5459 26.1505 15.3535C26.19 15.3476 26.23 15.3413 26.2697 15.336H26.1994C34.6324 12.4098 31.0221 3.70513 21.6271 1.16788C19.082 3.6285 22.0359 7.52306 24.3537 4.72269C26.66 9.04019 24.8914 12.6969 19.8362 9.93556C19.0937 11.4663 17.6979 12.5214 16.0432 12.5214C14.3743 12.5214 12.9702 11.4485 12.2326 9.89644C7.12173 12.7327 5.3256 9.06069 7.64279 4.72269C9.96091 7.523 12.9147 3.62844 10.3694 1.16794L10.3691 1.168ZM16.0435 3.413C14.3317 3.413 12.8354 5.13525 12.8354 7.38863C12.8354 9.64213 14.3317 11.3258 16.0435 11.3258C17.7552 11.3258 19.2514 9.64207 19.2514 7.38869C19.2514 5.13507 17.7552 3.41306 16.0434 3.41306L16.0435 3.413Z" fill="white"/>
</svg>
